<svg xmlns="http://www.w3.org/2000/svg" viewBox="0 0 437.4 434.4" style="enable-background:new 0 0 437.4 434.4" xml:space="preserve"><style>.st0{fill:none;stroke:#000;stroke-width:.57;stroke-miterlimit:10}</style><g id="Layer_1"><path class="st0" d="m41.18 306.18 84.43 84.43-19.53 20.8c-11.26 11.99-26.1 17.98-40.93 17.98-14.84 0-29.68-5.99-40.93-17.98-22.52-23.97-22.52-63.2 0-87.18l16.96-18.05zm310.48-156.3L139.65 375.65l-84.43-84.43L269.8 62.7c22.51-23.98 59.34-23.98 81.86 0 22.51 23.97 22.51 63.2 0 87.18z"/><path d="M426.11 88.46c-24.57-26.71-49.15-53.42-73.72-80.13a93.834 93.834 0 0 1-30.93-4.39c-6.96 7.41-6.96 19.53 0 26.94l79.36 84.52c6.96 7.41 18.34 7.41 25.29 0 6.96-7.41 6.96-19.53 0-26.94zM248.07 35.83c13.66 16.01 4.9 48.19-19.57 71.87-24.47 23.68-33.21 29.27-46.88 13.25-13.66-16.01-2.33-26.15 22.14-49.83 24.47-23.67 30.65-51.3 44.31-35.29z" style="stroke-width:.5;fill:none;stroke:#000;stroke-miterlimit:10"/><path class="st0" d="m139.93 375.93-.28-.28m-13.72 15.28-.32-.32"/></g></svg>