<?xml version="1.0" encoding="utf-8"?>
<!-- Generator: Adobe Illustrator 23.0.1, SVG Export Plug-In . SVG Version: 6.00 Build 0)  -->
<svg version="1.1" xmlns="http://www.w3.org/2000/svg" xmlns:xlink="http://www.w3.org/1999/xlink" x="0px" y="0px"
	 viewBox="0 0 437.4 434.4" style="enable-background:new 0 0 437.4 434.4;" xml:space="preserve">
<style type="text/css">
	.st0{fill:none;stroke:#000000;stroke-width:0.57;stroke-miterlimit:10;}
	.st1{fill:none;stroke:#000000;stroke-width:0.5;stroke-miterlimit:10;}
	.st2{stroke:#000000;stroke-width:18;stroke-miterlimit:10;}
</style>
<g id="Layer_2">
</g>
<g id="Layer_1">
	<g id="Layer_3">
	</g>
	<path class="st0" d="M41.18,306.18l84.43,84.43l-19.53,20.8c-11.26,11.99-26.1,17.98-40.93,17.98c-14.84,0-29.68-5.99-40.93-17.98
		c-22.52-23.97-22.52-63.2,0-87.18L41.18,306.18z"/>
	<path class="st0" d="M351.66,149.88L139.65,375.65l-84.43-84.43L269.8,62.7c22.51-23.98,59.34-23.98,81.86,0
		C374.17,86.67,374.17,125.9,351.66,149.88z"/>
	<path class="st1" d="M426.11,88.46c-24.57-26.71-49.15-53.42-73.72-80.13c-5.87,0.15-12.84-0.21-20.56-1.73
		c-3.76-0.74-7.22-1.66-10.37-2.66l0,0c-6.96,7.41-6.96,19.53,0,26.94l79.36,84.52c6.96,7.41,18.34,7.41,25.29,0
		C433.07,107.99,433.07,95.87,426.11,88.46z"/>
	<path class="st1" d="M248.07,35.83c13.66,16.01,4.9,48.19-19.57,71.87c-24.47,23.68-33.21,29.27-46.88,13.25
		c-13.66-16.01-2.33-26.15,22.14-49.83C228.23,47.45,234.41,19.82,248.07,35.83z"/>
	<line class="st0" x1="139.93" y1="375.93" x2="139.65" y2="375.65"/>
	<line class="st0" x1="125.93" y1="390.93" x2="125.61" y2="390.61"/>
	
		<rect x="191.43" y="-6.09" transform="matrix(0.7071 -0.7071 0.7071 0.7071 -86.5159 210.9892)" class="st2" width="40" height="432.04"/>
</g>
</svg>
