<?xml version="1.0" encoding="UTF-8" standalone="no"?>
<svg
   xmlns:dc="http://purl.org/dc/elements/1.1/"
   xmlns:cc="http://creativecommons.org/ns#"
   xmlns:rdf="http://www.w3.org/1999/02/22-rdf-syntax-ns#"
   xmlns:svg="http://www.w3.org/2000/svg"
   xmlns="http://www.w3.org/2000/svg"
   version="1.1"
   id="Layer_1"
   x="0px"
   y="0px"
   viewBox="0 0 1077.457 1380.7793"
   xml:space="preserve"
   width="1077.457"
   height="1380.7793"><metadata
   id="metadata7"><rdf:RDF><cc:Work
       rdf:about=""><dc:format>image/svg+xml</dc:format><dc:type
         rdf:resource="http://purl.org/dc/dcmitype/StillImage" /><dc:title></dc:title></cc:Work></rdf:RDF></metadata><defs
   id="defs6565" />

<g
   id="layer1"
   style="display:inline"
   transform="translate(288.72852,599.71289)"><path
     id="rect7608"
     style="fill:#000000;fill-opacity:1;stroke:#000000;stroke-width:50;stroke-linecap:butt;stroke-linejoin:round;stroke-miterlimit:20;stroke-dasharray:none;stroke-dashoffset:0;paint-order:normal"
     d="M 250,-574.71289 A 222.22223,222.22223 0 0 0 27.777344,-352.49023 222.22223,222.22223 0 0 0 250,-130.26758 222.22223,222.22223 0 0 0 472.22266,-352.49023 222.22223,222.22223 0 0 0 250,-574.71289 Z m -469.49805,528.736328 c -24.50365,0 -44.23047,19.726819 -44.23047,44.2304682 V 78.375 c 0,24.50365 19.72682,44.23047 44.23047,44.23047 H -1.5039062 v 421.625 3.0332 164.57227 c 0,24.50365 19.7268202,44.23047 44.2304682,44.23047 H 161.16211 c 24.50365,0 44.23047,-19.72682 44.23047,-44.23047 v -120.3418 h 87.71094 v 120.3418 c 0,24.50365 19.72682,44.23047 44.23046,44.23047 H 455.76953 C 480.27318,756.06641 500,736.33959 500,711.83594 v -164.57227 -3.0332 -421.625 h 219.49805 c 24.50365,0 44.23047,-19.72682 44.23047,-44.23047 V -1.7460938 c 0,-24.5036492 -19.72682,-44.2304682 -44.23047,-44.2304682 z" /></g></svg>
