<?xml version="1.0" encoding="utf-8"?>
<!-- Generator: Adobe Illustrator 23.0.1, SVG Export Plug-In . SVG Version: 6.00 Build 0)  -->
<svg version="1.1" id="Layer_1" xmlns="http://www.w3.org/2000/svg" xmlns:xlink="http://www.w3.org/1999/xlink" x="0px" y="0px"
	 viewBox="0 0 500 388" style="enable-background:new 0 0 500 388;" xml:space="preserve">
<g>
	<g>
		<ellipse transform="matrix(0.7071 -0.7071 0.7071 0.7071 471.6391 371.7563)" cx="684.6" cy="-383.4" rx="83.1" ry="83.1"/>
		<polygon points="947,-49.1 885.8,46.5 870.2,71.6 813.7,159.4 769.8,131.2 718.1,96.7 793.3,-19.3 694.6,-89.9 669.5,55.9 
			671,55.9 724.3,200.2 774.5,333.4 697.7,452.6 628.7,560.8 531.5,499.7 647.5,319.3 598.9,187.6 359,560.8 263.4,499.7 
			556.6,43.4 556.6,43.4 575.4,-66.4 355.9,112.4 283.7,24.6 603.6,-235.7 608.3,-240.4 625.6,-237.3 666.3,-231 700.8,-224.7 
			714.9,-215.3 854.5,-115 		"/>
	</g>
</g>
<g transform="translate(-1.9001193,-43.556581)">
	<path d="M131.6-382.3c0-54.7-44.3-99-99-99s-99,44.3-99,99l0,0c0,54.7,44.3,99,99,99S131.6-327.6,131.6-382.3z"/>
	<path d="M321.8-85.3C231.4-90.8,142.5-111,58.5-145c-6.6-2.7-9.7-10.1-7.1-16.7c1.9-4.9,6.7-8,11.9-8h243.8
		c22.3,0,40.5-18.1,40.5-40.5s-18.1-40.5-40.5-40.5H-41.1c-36.3,0-68.1,24.1-77.9,59l-69.8,248.5l-35.9,209.6l-178,32
		c-27.5,4.9-45.8,31.2-40.8,58.7c4.9,27.5,31.2,45.8,58.7,40.8l200.4-36.1c33.5-6,59.7-32.4,65.5-66l16.7-97.4
		c0.8-4.4,5.1-7.3,9.5-6.4c2.4,0.5,4.5,2,5.6,4.2l53.2,107.2l-84.2,229.3c-9.2,26.4,4.6,55.2,31,64.4c25.8,9,54.1-4.1,63.9-29.6
		l91-247.9c7.7-20.9,6.4-44-3.4-63.9L-24,77.6L21.6-72.7c94,38.9,193.7,61.9,295.2,68.2c22.3,1.4,41.5-15.6,42.9-37.9
		C361.1-64.7,344.1-83.9,321.8-85.3z"/>
</g>
</svg>
