<?xml version="1.0" encoding="UTF-8" standalone="no"?>
<svg
   xmlns:dc="http://purl.org/dc/elements/1.1/"
   xmlns:cc="http://creativecommons.org/ns#"
   xmlns:rdf="http://www.w3.org/1999/02/22-rdf-syntax-ns#"
   xmlns:svg="http://www.w3.org/2000/svg"
   xmlns="http://www.w3.org/2000/svg"
   version="1.1"
   id="Layer_1"
   x="0px"
   y="0px"
   viewBox="0 0 1393.2231 1085.6566"
   xml:space="preserve"
   width="1393.2231"
   height="1085.6566"><metadata
   id="metadata21"><rdf:RDF><cc:Work
       rdf:about=""><dc:format>image/svg+xml</dc:format><dc:type
         rdf:resource="http://purl.org/dc/dcmitype/StillImage" /><dc:title></dc:title></cc:Work></rdf:RDF></metadata><defs
   id="defs19" />
<g
   id="g8"
   transform="translate(446.22317,524.85658)">
	<g
   id="g6">
		<circle
   transform="matrix(0.7071,-0.7071,0.7071,0.7071,471.6391,371.7563)"
   cx="684.59998"
   cy="-383.39999"
   id="ellipse2"
   r="83.099998" />
		<polygon
   points="870.2,71.6 813.7,159.4 769.8,131.2 718.1,96.7 793.3,-19.3 694.6,-89.9 669.5,55.9 671,55.9 724.3,200.2 774.5,333.4 697.7,452.6 628.7,560.8 531.5,499.7 647.5,319.3 598.9,187.6 359,560.8 263.4,499.7 556.6,43.4 556.6,43.4 575.4,-66.4 355.9,112.4 283.7,24.6 603.6,-235.7 608.3,-240.4 625.6,-237.3 666.3,-231 700.8,-224.7 714.9,-215.3 854.5,-115 947,-49.1 885.8,46.5 "
   id="polygon4" />
	</g>
</g>
<g
   transform="translate(444.32305,481.3)"
   id="g14">
	<path
   d="m 131.6,-382.3 c 0,-54.7 -44.3,-99 -99,-99 -54.7,0 -99,44.3 -99,99 v 0 c 0,54.7 44.3,99 99,99 54.7,0 99,-44.3 99,-99 z"
   id="path10" />
	<path
   d="M 321.8,-85.3 C 231.4,-90.8 142.5,-111 58.5,-145 c -6.6,-2.7 -9.7,-10.1 -7.1,-16.7 1.9,-4.9 6.7,-8 11.9,-8 h 243.8 c 22.3,0 40.5,-18.1 40.5,-40.5 0,-22.4 -18.1,-40.5 -40.5,-40.5 H -41.1 c -36.3,0 -68.1,24.1 -77.9,59 l -69.8,248.5 -35.9,209.6 -178,32 c -27.5,4.9 -45.8,31.2 -40.8,58.7 4.9,27.5 31.2,45.8 58.7,40.8 l 200.4,-36.1 c 33.5,-6 59.7,-32.4 65.5,-66 l 16.7,-97.4 c 0.8,-4.4 5.1,-7.3 9.5,-6.4 2.4,0.5 4.5,2 5.6,4.2 l 53.2,107.2 -84.2,229.3 c -9.2,26.4 4.6,55.2 31,64.4 25.8,9 54.1,-4.1 63.9,-29.6 l 91,-247.9 c 7.7,-20.9 6.4,-44 -3.4,-63.9 L -24,77.6 21.6,-72.7 c 94,38.9 193.7,61.9 295.2,68.2 22.3,1.4 41.5,-15.6 42.9,-37.9 1.4,-22.3 -15.6,-41.5 -37.9,-42.9 z"
   id="path12" />
</g>
</svg>
