<svg xmlns="http://www.w3.org/2000/svg" xml:space="preserve" width="1393.223" height="1085.657"><g transform="translate(446.223 524.857)"><circle cx="684.6" cy="-383.4" r="83.1" transform="rotate(-45.001 684.577 -383.435)"/><path d="m870.2 71.6-56.5 87.8-43.9-28.2-51.7-34.5 75.2-116-98.7-70.6-25.1 145.8h1.5l53.3 144.3 50.2 133.2-76.8 119.2-69 108.2-97.2-61.1 116-180.4-48.6-131.7L359 560.8l-95.6-61.1L556.6 43.4l18.8-109.8-219.5 178.8-72.2-87.8 319.9-260.3 4.7-4.7 17.3 3.1 40.7 6.3 34.5 6.3 14.1 9.4L854.5-115 947-49.1l-61.2 95.6z"/></g><path d="M575.923 99c0-54.7-44.3-99-99-99s-99 44.3-99 99 44.3 99 99 99 99-44.3 99-99m190.2 297c-90.4-5.5-179.3-25.7-263.3-59.7-6.6-2.7-9.7-10.1-7.1-16.7 1.9-4.9 6.7-8 11.9-8h243.8c22.3 0 40.5-18.1 40.5-40.5s-18.1-40.5-40.5-40.5h-348.2c-36.3 0-68.1 24.1-77.9 59l-69.8 248.5-35.9 209.6-178 32c-27.5 4.9-45.8 31.2-40.8 58.7 4.9 27.5 31.2 45.8 58.7 40.8l200.4-36.1c33.5-6 59.7-32.4 65.5-66l16.7-97.4c.8-4.4 5.1-7.3 9.5-6.4 2.4.5 4.5 2 5.6 4.2l53.2 107.2-84.2 229.3c-9.2 26.4 4.6 55.2 31 64.4 25.8 9 54.1-4.1 63.9-29.6l91-247.9c7.7-20.9 6.4-44-3.4-63.9l-88.4-178.1 45.6-150.3c94 38.9 193.7 61.9 295.2 68.2 22.3 1.4 41.5-15.6 42.9-37.9s-15.6-41.5-37.9-42.9"/></svg>