<svg xmlns="http://www.w3.org/2000/svg" width="670" height="512"><path d="M655.714 228H484.286c-7.857 0-14.286 6.412-14.286 14.25v28.5c0 7.838 6.429 14.25 14.286 14.25h171.428c7.857 0 14.286-6.413 14.286-14.25v-28.5c0-7.838-6.429-14.25-14.286-14.25" style="stroke-width:.89174"/><path d="M384 121.941V128H256V0h6.059a24 24 0 0 1 16.97 7.029l97.941 97.941a24 24 0 0 1 7.03 16.971M248 160c-13.2 0-24-10.8-24-24V0H24C10.745 0 0 10.745 0 24v464c0 13.255 10.745 24 24 24h336c13.255 0 24-10.745 24-24V160zm-135.46 16c26.51 0 48 21.49 48 48s-21.49 48-48 48-48-21.49-48-48 21.491-48 48-48m208 240h-256l.485-48.485L104.54 328c4.686-4.686 11.799-4.201 16.485.485L160.54 368l103.52-103.52c4.686-4.686 12.284-4.686 16.971 0l39.514 39.515z"/></svg>