<svg xmlns="http://www.w3.org/2000/svg" opacity=".33" version="1.0" viewBox="0 0 425 200"><path d="M178.004.039H106.8a6.761 6.026 0 0 0-6.761 6.025v187.872a6.761 6.026 0 0 0 6.761 6.025h53.107a6.761 6.026 0 0 0 6.762-6.025V92.392l72.216 104.7a6.761 6.026 0 0 0 5.76 2.87H318.2a6.761 6.026 0 0 0 6.761-6.026V6.064A6.761 6.026 0 0 0 318.2.04h-54.717a6.761 6.026 0 0 0-6.76 6.025v102.62L183.763 2.909a6.761 6.026 0 0 0-5.76-2.87zM4.845 22.109A13.412 12.502 0 0 1 13.478.039h66.118A5.365 5 0 0 1 84.96 5.04v79.88zm415.31 155.782a13.412 12.502 0 0 1-8.633 22.07h-66.118a5.365 5 0 0 1-5.365-5.001v-79.88z"/></svg>