<svg xmlns="http://www.w3.org/2000/svg" xml:space="preserve" width="360.01" height="853.5"><path d="m358.8 590.4-80-320.1c-4.5-17.8-20.5-30.3-38.8-30.3h-18.9c-19.1 8.8-40 13.3-61.1 13.3v600.1h26.7c22.1 0 40-17.9 40-40V640.1H320c26 0 45.1-24.4 38.8-49.7m-92.1-483.7C266.7 47.8 218.9 0 160 0v213.4c58.9 0 106.7-47.8 106.7-106.7M80 240.1c-44.2 0-80 35.8-80 80v226.7c0 22.1 17.9 40 40 40h26.7v226.7c0 22.1 17.9 40 40 40H160V253.4c-20.7 0-41.5-4.3-61.1-13.3zM53.3 106.7c0 58.9 47.8 106.7 106.7 106.7V0C101.1 0 53.3 47.8 53.3 106.7"/></svg>