<?xml version="1.0" encoding="utf-8"?>
<!-- Generator: Adobe Illustrator 23.0.1, SVG Export Plug-In . SVG Version: 6.00 Build 0)  -->
<svg version="1.1" xmlns="http://www.w3.org/2000/svg" xmlns:xlink="http://www.w3.org/1999/xlink" x="0px" y="0px"
	 viewBox="0 0 707.8 944.4" style="enable-background:new 0 0 707.8 944.4;" xml:space="preserve">
<g id="woman" focusable="false">
</g>
<g id="man">
	<g>
		<path d="M532.7,767.2L532.7,767.2l-80-320.1c-4.5-17.8-20.5-30.3-38.8-30.3H395c-19.1,8.8-40,13.3-61.1,13.3v600.1h26.7
			c22.1,0,40-17.9,40-40V816.9h93.3C519.9,816.9,539,792.5,532.7,767.2z"/>
		<path d="M440.6,283.5c0-58.9-47.8-106.7-106.7-106.7v213.4C392.8,390.2,440.6,342.4,440.6,283.5z"/>
		<path d="M253.9,416.9c-44.2,0-80,35.8-80,80v226.7c0,22.1,17.9,40,40,40h26.7v226.7c0,22.1,17.9,40,40,40h53.3V430.2
			c-20.7,0-41.5-4.3-61.1-13.3H253.9z"/>
		<path d="M227.2,283.5c0,58.9,47.8,106.7,106.7,106.7V176.8C275,176.8,227.2,224.6,227.2,283.5z"/>
	</g>
</g>
</svg>
