<?xml version="1.0" encoding="UTF-8" standalone="no"?>
<svg
   xmlns:dc="http://purl.org/dc/elements/1.1/"
   xmlns:cc="http://creativecommons.org/ns#"
   xmlns:rdf="http://www.w3.org/1999/02/22-rdf-syntax-ns#"
   xmlns:svg="http://www.w3.org/2000/svg"
   xmlns="http://www.w3.org/2000/svg"
   version="1.1"
   x="0px"
   y="0px"
   viewBox="0 0 360.00986 853.49998"
   xml:space="preserve"
   id="svg14"
   width="360.00986"
   height="853.5"><metadata
   id="metadata20"><rdf:RDF><cc:Work
       rdf:about=""><dc:format>image/svg+xml</dc:format><dc:type
         rdf:resource="http://purl.org/dc/dcmitype/StillImage" /><dc:title></dc:title></cc:Work></rdf:RDF></metadata><defs
   id="defs18" />
<g
   id="woman"
   focusable="false"
   transform="translate(-173.9,-176.8)">
</g>
<g
   id="man"
   transform="translate(-173.9,-176.8)">
	<g
   id="g11">
		<path
   d="m 532.7,767.2 v 0 l -80,-320.1 c -4.5,-17.8 -20.5,-30.3 -38.8,-30.3 H 395 c -19.1,8.8 -40,13.3 -61.1,13.3 v 600.1 h 26.7 c 22.1,0 40,-17.9 40,-40 V 816.9 h 93.3 c 26,0 45.1,-24.4 38.8,-49.7 z"
   id="path3" />
		<path
   d="m 440.6,283.5 c 0,-58.9 -47.8,-106.7 -106.7,-106.7 v 213.4 c 58.9,0 106.7,-47.8 106.7,-106.7 z"
   id="path5" />
		<path
   d="m 253.9,416.9 c -44.2,0 -80,35.8 -80,80 v 226.7 c 0,22.1 17.9,40 40,40 h 26.7 v 226.7 c 0,22.1 17.9,40 40,40 h 53.3 V 430.2 c -20.7,0 -41.5,-4.3 -61.1,-13.3 z"
   id="path7" />
		<path
   d="m 227.2,283.5 c 0,58.9 47.8,106.7 106.7,106.7 V 176.8 c -58.9,0 -106.7,47.8 -106.7,106.7 z"
   id="path9" />
	</g>
</g>
</svg>
