<svg xmlns="http://www.w3.org/2000/svg" xml:space="preserve" width="1077.457" height="1380.779"><g style="display:inline"><path d="M250-574.713A222.22 222.22 0 0 0 27.777-352.49 222.22 222.22 0 0 0 250-130.268 222.22 222.22 0 0 0 472.223-352.49 222.22 222.22 0 0 0 250-574.713ZM-219.498-45.977c-24.504 0-44.23 19.727-44.23 44.23v80.122c0 24.504 19.726 44.23 44.23 44.23H-1.504v589.231c0 24.504 19.727 44.23 44.23 44.23h118.436c24.504 0 44.23-19.726 44.23-44.23V591.494h87.712v120.342c0 24.504 19.726 44.23 44.23 44.23H455.77c24.503 0 44.23-19.726 44.23-44.23V122.605h219.498c24.504 0 44.23-19.726 44.23-44.23V-1.746c0-24.504-19.726-44.23-44.23-44.23z" style="fill:#000;fill-opacity:1;stroke:#000;stroke-width:50;stroke-linecap:butt;stroke-linejoin:round;stroke-miterlimit:20;stroke-dasharray:none;stroke-dashoffset:0;paint-order:normal" transform="translate(288.729 599.713)"/></g></svg>