<svg xmlns="http://www.w3.org/2000/svg" xml:space="preserve" width="862.822" height="1185.2"><g transform="translate(188.11 446.9)"><circle cx="97" cy="-305.1" r="141.8"/><path d="M654.7 11.6 455.2-212.6c-22.9-25.8-101.3 34.4-118.8 76.8-42.1 11.9-85.6 16.4-126.2 16.4-49.5 0-94.4-6.6-126.6-13.2-16.1-3.3-29-6.6-37.6-9-4.3-1.1-7.6-2.2-9.7-2.8-1.1-.3-1.8-.6-2.3-.7l-.4-.2c-.5-.2-.9-.2-1.4-.4-4.2-2-8.6-3.7-13.2-4.8-53.8-13.4-131.9 15.8-163.7 108.1-42.9 127.3-52.2 210.1-35.8 350.2 17.3 89.2 73.2 108.1 125.7 110.8 4 .7 8.1 1.1 12.3 1.1h302.7L359.9 687c11.9 31.7 41.9 51.3 73.9 51.3 9.2 0 18.5-1.6 27.6-5 40.8-15.2 61.5-60.6 46.3-101.4L388.8 313.4c-11.5-30.8-41-51.3-73.9-51.3h-98.5l59.5-37.2c36.9-23.1-46.8-156.7-83.7-133.7L46.3 182.6c5.6-48.8 14.9-96.4 23.5-138.7-54.2-9.9-89.7-24-99.2-28-15.9-7-27.7-19.3-33.9-35s-5.8-32.8 1-48.3c10.1-23 32.7-37.8 57.8-37.8 8.8 0 17.3 1.8 25.3 5.3l1.2.5c1.8.7 4.5 1.7 8 3 7 2.5 18.3 6.1 33.1 9.8 26.9 6.8 70 14.8 122.5 14.8 79.8 0 157.6-18.2 231.1-54 8.7-4.3 18-6.4 27.6-6.4 24.4 0 46.1 13.6 56.8 35.5 15.2 31.2 2.1 69.1-29.1 84.3-11.7 5.7-23.5 11-35.3 16L537 116.3c29 32.6 78.8 35.4 111.3 6.5 21-18.7 29.7-46.2 25.3-72.2-2.4-14-8.6-27.6-18.9-39"/><path d="M489.7-91.2c-12.2-25-42.4-35.5-67.5-23.3-87.4 42.6-169.1 55.3-236.6 55.3-52 0-95.5-7.6-125.7-15.2-15-3.8-26.7-7.4-34.3-10.1-3.8-1.3-6.6-2.4-8.3-3.1-.8-.3-1.5-.6-1.7-.7h-.1c-25.5-11.1-55.3.5-66.4 26s.5 55.2 26.1 66.4c4.3 1.8 86.6 37.5 210.6 37.7h.2c80.2 0 177.9-15.5 280.6-65.4 24.9-12.3 35.3-42.4 23.1-67.6"/></g></svg>