<?xml version="1.0" encoding="UTF-8" standalone="no"?>
<svg
   xmlns:dc="http://purl.org/dc/elements/1.1/"
   xmlns:cc="http://creativecommons.org/ns#"
   xmlns:rdf="http://www.w3.org/1999/02/22-rdf-syntax-ns#"
   xmlns:svg="http://www.w3.org/2000/svg"
   xmlns="http://www.w3.org/2000/svg"
   version="1.1"
   id="Layer_1"
   x="0px"
   y="0px"
   viewBox="0 0 862.82184 1185.2"
   xml:space="preserve"
   width="862.82184"
   height="1185.2"><metadata
   id="metadata15"><rdf:RDF><cc:Work
       rdf:about=""><dc:format>image/svg+xml</dc:format><dc:type
         rdf:resource="http://purl.org/dc/dcmitype/StillImage" /><dc:title></dc:title></cc:Work></rdf:RDF></metadata><defs
   id="defs13" />
<g
   id="g8"
   transform="translate(188.10963,446.90001)">
	<circle
   cx="97"
   cy="-305.10001"
   id="ellipse2"
   r="141.8" />
	<path
   d="M 654.7,11.6 455.2,-212.6 c -22.9,-25.8 -101.3,34.4 -118.8,76.8 -42.1,11.9 -85.6,16.4 -126.2,16.4 -49.5,0 -94.4,-6.6 -126.6,-13.2 -16.1,-3.3 -29,-6.6 -37.6,-9 -4.3,-1.1 -7.6,-2.2 -9.7,-2.8 -1.1,-0.3 -1.8,-0.6 -2.3,-0.7 -0.4,-0.2 -0.4,-0.2 -0.4,-0.2 -0.5,-0.2 -0.9,-0.2 -1.4,-0.4 -4.2,-2 -8.6,-3.7 -13.2,-4.8 -53.8,-13.4 -131.9,15.8 -163.7,108.1 -42.9,127.3 -52.2,210.1 -35.8,350.2 17.3,89.2 73.2,108.1 125.7,110.8 4,0.7 8.1,1.1 12.3,1.1 v 0 H 260.2 L 359.9,687 c 11.9,31.7 41.9,51.3 73.9,51.3 9.2,0 18.5,-1.6 27.6,-5 40.8,-15.2 61.5,-60.6 46.3,-101.4 L 388.8,313.4 c -11.5,-30.8 -41,-51.3 -73.9,-51.3 h -98.5 l 59.5,-37.2 C 312.8,201.8 229.1,68.2 192.2,91.2 L 46.3,182.6 C 51.9,133.8 61.2,86.2 69.8,43.9 15.6,34 -19.9,19.9 -29.4,15.9 c -15.9,-7 -27.7,-19.3 -33.9,-35 -6.2,-15.7 -5.8,-32.8 1,-48.3 10.1,-23 32.7,-37.8 57.8,-37.8 8.8,0 17.3,1.8 25.3,5.3 l 1.2,0.5 c 1.8,0.7 4.5,1.7 8,3 7,2.5 18.3,6.1 33.1,9.8 26.9,6.8 70,14.8 122.5,14.8 79.8,0 157.6,-18.2 231.1,-54 8.7,-4.3 18,-6.4 27.6,-6.4 24.4,0 46.1,13.6 56.8,35.5 15.2,31.2 2.1,69.1 -29.1,84.3 -11.7,5.7 -23.5,11 -35.3,16 L 537,116.3 c 29,32.6 78.8,35.4 111.3,6.5 21,-18.7 29.7,-46.2 25.3,-72.2 -2.4,-14 -8.6,-27.6 -18.9,-39 z"
   id="path4" />
	<path
   d="m 489.7,-91.2 c -12.2,-25 -42.4,-35.5 -67.5,-23.3 -87.4,42.6 -169.1,55.3 -236.6,55.3 -52,0 -95.5,-7.6 -125.7,-15.2 -15,-3.8 -26.7,-7.4 -34.3,-10.1 -3.8,-1.3 -6.6,-2.4 -8.3,-3.1 -0.8,-0.3 -1.5,-0.6 -1.7,-0.7 h -0.1 c -25.5,-11.1 -55.3,0.5 -66.4,26 -11.1,25.5 0.5,55.2 26.1,66.4 v 0 c 4.3,1.8 86.6,37.5 210.6,37.7 0.1,0 0.2,0 0.2,0 80.2,0 177.9,-15.5 280.6,-65.4 24.9,-12.3 35.3,-42.4 23.1,-67.6 z"
   id="path6" />
</g>
</svg>
