<?xml version="1.0" encoding="utf-8"?>
<!-- Generator: Adobe Illustrator 23.0.1, SVG Export Plug-In . SVG Version: 6.00 Build 0)  -->
<svg version="1.1" id="Layer_1" xmlns="http://www.w3.org/2000/svg" xmlns:xlink="http://www.w3.org/1999/xlink" x="0px" y="0px"
	 viewBox="0 0 500 500" style="enable-background:new 0 0 500 500;" xml:space="preserve">
<g>
	<ellipse cx="97" cy="-305.1" rx="141.8" ry="141.8"/>
	<path d="M654.7,11.6L455.2-212.6c-22.9-25.8-101.3,34.4-118.8,76.8c-42.1,11.9-85.6,16.4-126.2,16.4c-49.5,0-94.4-6.6-126.6-13.2
		c-16.1-3.3-29-6.6-37.6-9c-4.3-1.1-7.6-2.2-9.7-2.8c-1.1-0.3-1.8-0.6-2.3-0.7c-0.4-0.2-0.4-0.2-0.4-0.2c-0.5-0.2-0.9-0.2-1.4-0.4
		c-4.2-2-8.6-3.7-13.2-4.8c-53.8-13.4-131.9,15.8-163.7,108.1c-42.9,127.3-52.2,210.1-35.8,350.2c17.3,89.2,73.2,108.1,125.7,110.8
		c4,0.7,8.1,1.1,12.3,1.1l0,0h302.7L359.9,687c11.9,31.7,41.9,51.3,73.9,51.3c9.2,0,18.5-1.6,27.6-5c40.8-15.2,61.5-60.6,46.3-101.4
		L388.8,313.4c-11.5-30.8-41-51.3-73.9-51.3h-98.5l59.5-37.2c36.9-23.1-46.8-156.7-83.7-133.7L46.3,182.6
		c5.6-48.8,14.9-96.4,23.5-138.7c-54.2-9.9-89.7-24-99.2-28c-15.9-7-27.7-19.3-33.9-35s-5.8-32.8,1-48.3
		c10.1-23,32.7-37.8,57.8-37.8c8.8,0,17.3,1.8,25.3,5.3l1.2,0.5c1.8,0.7,4.5,1.7,8,3c7,2.5,18.3,6.1,33.1,9.8
		c26.9,6.8,70,14.8,122.5,14.8c79.8,0,157.6-18.2,231.1-54c8.7-4.3,18-6.4,27.6-6.4c24.4,0,46.1,13.6,56.8,35.5
		c15.2,31.2,2.1,69.1-29.1,84.3c-11.7,5.7-23.5,11-35.3,16l100.3,112.7c29,32.6,78.8,35.4,111.3,6.5c21-18.7,29.7-46.2,25.3-72.2
		C671.2,36.6,665,23,654.7,11.6z"/>
	<path d="M489.7-91.2c-12.2-25-42.4-35.5-67.5-23.3c-87.4,42.6-169.1,55.3-236.6,55.3c-52,0-95.5-7.6-125.7-15.2
		c-15-3.8-26.7-7.4-34.3-10.1c-3.8-1.3-6.6-2.4-8.3-3.1c-0.8-0.3-1.5-0.6-1.7-0.7h-0.1c-25.5-11.1-55.3,0.5-66.4,26
		C-62-36.8-50.4-7.1-24.8,4.1l0,0c4.3,1.8,86.6,37.5,210.6,37.7c0.1,0,0.2,0,0.2,0c80.2,0,177.9-15.5,280.6-65.4
		C491.5-35.9,501.9-66,489.7-91.2z"/>
</g>
</svg>
