<svg xmlns="http://www.w3.org/2000/svg" width="542" height="512"><path d="M527.714 227.929h-57.143v-57.143c0-7.857-6.428-14.286-14.285-14.286h-28.572c-7.857 0-14.285 6.429-14.285 14.286v57.143h-57.143c-7.857 0-14.286 6.428-14.286 14.285v28.572c0 7.857 6.429 14.285 14.286 14.285h57.143v57.143c0 7.857 6.428 14.286 14.285 14.286h28.572c7.857 0 14.285-6.429 14.285-14.286v-57.143h57.143c7.857 0 14.286-6.428 14.286-14.285v-28.572c0-7.857-6.429-14.285-14.286-14.285z" style="stroke-width:.892857"/><path d="M215.03 71.05 126.06 160H24c-13.26 0-24 10.74-24 24v144c0 13.25 10.74 24 24 24h102.06l88.97 88.95c15.03 15.03 40.97 4.47 40.97-16.97V88.02c0-21.46-25.96-31.98-40.97-16.97z"/></svg>