<svg xmlns="http://www.w3.org/2000/svg" width="200mm" height="300mm" opacity=".33" version="1.0" viewBox="0 0 755.71 1133.9"><path d="M353.55 49.811c-68.112 0-128.68 11.108-181.72 33.318-52.514 22.209-92.55 53.8-120.11 94.76-27.037 40.475-38.739 88.345-38.739 143.62q0 57.009 30.741 105.13 31.676 48.12 95.025 89.573 63.344 40.726 172.34 83.662c75.147 29.613 131.05 55.524 167.69 77.73 36.641 22.213 63.028 45.9 79.175 71.069q24.225 37.76 24.224 93.286c0 57.748-19.561 101.67-58.684 131.78-38.506 30.109-94.092 45.165-166.75 45.165q-79.187-.002-129.48-17.769c-33.535-12.34-60.865-31.094-81.976-56.266-21.118-25.172-37.89-59.472-50.31-102.91H1.82v202.84c127.31 26.157 239.72 39.243 337.22 39.243 60.241 0 115.52-4.936 165.82-14.806 50.923-10.366 94.4-26.654 130.42-48.867 36.641-22.699 65.205-51.826 85.699-87.36 20.494-36.027 30.741-79.957 30.741-131.78q.002-69.59-37.258-121.41c-24.217-35.045-58.38-66.132-102.47-93.278q-65.213-40.715-184.45-88.096c-65.829-25.665-115.52-48.867-149.05-69.595-33.535-20.728-69.969-44.383-90.614-67.371-20.404-22.724-36.318-53.793-36.318-88.834q.002-49.602 23.401-85.133c41.733-51.397 155.25-6.414 169.5 86.903q27.3 36.275 45.237 101.43h77.208v-199.89c-16.843-21.146-37.434-37.947-59.824-51.305 6.167 1.71 11.996 3.652 17.444 5.854 24.435 9.374 45.756 26.154 63.953 50.341q27.3 36.275 45.237 101.42s31.888-.46 31.926-.007c1.568 22.898-6.596 33.743-15.508 44.837-9.089 11.315-19.347 24.237-15.053 46.414 5.67 29.281 38.296 37.826 54.984 33.239-12.477-1.785-19.998-6.247-19.998-6.247s7.054 3.566 21.246-4.854c-12.319 3.412-40.251-2.845-44.372-24.141-3.602-18.59 3.557-26.04 12.785-37.53 9.232-11.494 19.874-24.84 17.617-51.72l.011.008h33.57V82.374q-85.015-20.728-141.94-26.646c-37.435-3.952-75.915-5.922-115.43-5.922zm264.43 61.785.895 143.87c4.956 4.376 9.175 8.131 12.563 11.087q27.3 36.275 45.237 101.42h77.208v-199.89c-25.108-16.398-74.591-37.383-135.9-56.488zm-105.74 20.007 32.208 63.241c-45.012-23.084-52.07-34.685-32.208-63.241m85.725 0c10.42 28.556 6.72 40.157-16.899 63.241zm57.24 85.7 32.208 63.237c-45.012-23.08-52.07-34.685-32.208-63.237m85.725 0c10.42 28.556 6.72 40.157-16.899 63.237zm-372.71 7.878 32.208 63.237c-45.012-23.084-52.07-34.685-32.208-63.237m85.718 0c10.424 28.553 6.724 40.157-16.895 63.237z"/></svg>