<?xml version="1.0" encoding="UTF-8"?>
<svg width="200mm" height="300mm" opacity=".33" version="1.0" viewBox="0 0 755.71 1133.9" xmlns="http://www.w3.org/2000/svg" xmlns:cc="http://creativecommons.org/ns#" xmlns:dc="http://purl.org/dc/elements/1.1/" xmlns:rdf="http://www.w3.org/1999/02/22-rdf-syntax-ns#">
 <metadata>
  <rdf:RDF>
   <cc:Work rdf:about="">
    <dc:format>image/svg+xml</dc:format>
    <dc:type rdf:resource="http://purl.org/dc/dcmitype/StillImage"/>
    <dc:title/>
   </cc:Work>
  </rdf:RDF>
 </metadata>
 <path d="m353.55 49.811c-68.112 0-128.68 11.108-181.72 33.318-52.514 22.209-92.55 53.8-120.11 94.76-27.037 40.475-38.739 88.345-38.739 143.62 0 38.005 10.247 73.05 30.741 105.13 21.118 32.079 52.792 61.938 95.025 89.573 42.229 27.15 99.676 55.038 172.34 83.662 75.147 29.613 131.05 55.524 167.69 77.73 36.641 22.213 63.028 45.9 79.175 71.069 16.151 25.172 24.224 56.27 24.224 93.286 0 57.748-19.561 101.67-58.684 131.78-38.506 30.109-94.092 45.165-166.75 45.165-52.792 0-95.95-5.9254-129.48-17.769-33.535-12.34-60.865-31.094-81.976-56.266-21.118-25.172-37.89-59.472-50.31-102.91h-93.156v202.84c127.31 26.157 239.72 39.243 337.22 39.243 60.241 0 115.52-4.9365 165.82-14.806 50.923-10.366 94.4-26.654 130.42-48.867 36.641-22.699 65.205-51.826 85.699-87.36 20.494-36.027 30.741-79.957 30.741-131.78 0-46.393-12.417-86.864-37.258-121.41-24.217-35.045-58.38-66.132-102.47-93.278-43.474-27.143-104.96-56.509-184.45-88.096-65.829-25.665-115.52-48.867-149.05-69.595-33.535-20.728-69.969-44.383-90.614-67.371-20.404-22.724-36.318-53.793-36.318-88.834 0-33.068 7.8028-61.446 23.401-85.133 41.733-51.397 155.25-6.4144 169.5 86.903 18.2 24.183 33.279 57.994 45.237 101.43h77.208v-199.89c-16.843-21.146-37.434-37.947-59.824-51.305 6.167 1.7098 11.996 3.6516 17.444 5.854 24.435 9.3735 45.756 26.154 63.953 50.341 18.2 24.183 33.279 57.99 45.237 101.42 0 0 31.888-0.46046 31.926-7e-3 1.5681 22.898-6.5957 33.743-15.508 44.837-9.0888 11.315-19.347 24.237-15.053 46.414 5.6706 29.281 38.296 37.826 54.984 33.239-12.477-1.7848-19.998-6.2466-19.998-6.2466s7.0544 3.5659 21.246-4.8545c-12.319 3.4125-40.251-2.8449-44.372-24.141-3.6024-18.59 3.5573-26.04 12.785-37.53 9.2317-11.494 19.874-24.84 17.617-51.719l0.0114 7e-3h33.569v-199.89c-56.676-13.818-103.99-22.702-141.94-26.646-37.434-3.9514-75.914-5.9218-115.43-5.9218zm264.43 61.785 0.89496 143.87c4.9562 4.3762 9.1753 8.1314 12.563 11.087 18.2 24.183 33.279 57.99 45.237 101.42h77.208v-199.89c-25.108-16.398-74.591-37.383-135.9-56.488zm-105.74 20.007 32.208 63.241c-45.012-23.084-52.07-34.685-32.208-63.241zm85.725 0c10.42 28.556 6.7198 40.157-16.899 63.241zm57.24 85.7 32.208 63.237c-45.012-23.08-52.07-34.685-32.208-63.237zm85.725 0c10.42 28.556 6.7198 40.157-16.899 63.237zm-372.71 7.8779 32.208 63.237c-45.012-23.084-52.07-34.685-32.208-63.237zm85.718 0c10.424 28.553 6.7235 40.157-16.895 63.237z" stroke-width="3.6637"/>
</svg>
