<?xml version="1.0" encoding="UTF-8" standalone="no"?>
<?xml-stylesheet type="text/css"  href="common.css"?>
<svg xmlns="http://www.w3.org/2000/svg" viewBox="0.35 -8.46 16.07 8.39" version="1" opacity="0.1">
  <path d="M16.14-1.05A0.5-0.5 0 0 1 15.81-0.16l-2.46 0a0.2-0.2 0 0 1-0.2-0.2l0-3.19zM3.59-4.99l0-3.27" />
  <path d="m3.59-4.99 0-3.27a0.2-0.2 0 0 0-0.2-0.2l-2.55 0A0.5-0.5 0 0 0 0.52-7.57Z" />
  <path d="m7.11-8.46-2.63 0a0.25-0.25 0 0 0-0.25 0.25l0 7.79a0.25-0.25 0 0 0 0.25 0.25l1.96 0a0.25-0.25 0 0 0 0.25-0.25l0-4.21 2.67 4.34A0.25-0.25 0 0 0 9.58-0.16l2.72 0a0.25-0.25 0 0 0 0.25-0.25l0-7.79a0.25-0.25 0 0 0-0.25-0.25l-2.02 0a0.25-0.25 0 0 0-0.25 0.25l0 4.26-2.7-4.39A0.25-0.25 0 0 0 7.11-8.46Z" />
</svg>
