<svg id="svg" xmlns="http://www.w3.org/2000/svg" xmlns:xlink="http://www.w3.org/1999/xlink" width="400" height="400" viewBox="0, 0, 400,400" opacity=".33"><g id="svgg"><path id="path0" d="M175.000 10.417 C 175.000 12.083,172.917 12.500,164.583 12.500 C 156.250 12.500,154.167 12.917,154.167 14.583 C 154.167 16.204,152.315 16.667,145.833 16.667 C 139.352 16.667,137.500 17.130,137.500 18.750 C 137.500 20.293,135.880 20.833,131.250 20.833 C 126.620 20.833,125.000 21.373,125.000 22.917 C 125.000 24.306,123.611 25.000,120.833 25.000 C 118.056 25.000,116.667 25.694,116.667 27.083 C 116.667 28.472,115.278 29.167,112.500 29.167 C 109.722 29.167,108.333 29.861,108.333 31.250 C 108.333 32.396,107.396 33.333,106.250 33.333 C 105.104 33.333,104.167 34.271,104.167 35.417 C 104.167 36.806,102.778 37.500,100.000 37.500 C 97.222 37.500,95.833 38.194,95.833 39.583 C 95.833 40.729,94.896 41.667,93.750 41.667 C 92.604 41.667,91.667 42.604,91.667 43.750 C 91.667 45.139,90.278 45.833,87.500 45.833 C 84.722 45.833,83.333 46.528,83.333 47.917 C 83.333 49.063,82.396 50.000,81.250 50.000 C 80.104 50.000,79.167 50.937,79.167 52.083 C 79.167 53.229,78.229 54.167,77.083 54.167 C 75.938 54.167,75.000 55.104,75.000 56.250 C 75.000 57.396,74.063 58.333,72.917 58.333 C 71.771 58.333,70.833 59.271,70.833 60.417 C 70.833 61.806,69.444 62.500,66.667 62.500 C 62.963 62.500,62.500 62.963,62.500 66.667 C 62.500 69.444,61.806 70.833,60.417 70.833 C 59.271 70.833,58.333 71.771,58.333 72.917 C 58.333 74.063,57.396 75.000,56.250 75.000 C 55.104 75.000,54.167 75.938,54.167 77.083 C 54.167 78.229,53.229 79.167,52.083 79.167 C 50.937 79.167,50.000 80.104,50.000 81.250 C 50.000 82.396,49.063 83.333,47.917 83.333 C 46.528 83.333,45.833 84.722,45.833 87.500 C 45.833 90.278,45.139 91.667,43.750 91.667 C 42.604 91.667,41.667 92.604,41.667 93.750 C 41.667 94.896,40.729 95.833,39.583 95.833 C 38.194 95.833,37.500 97.222,37.500 100.000 C 37.500 102.778,36.806 104.167,35.417 104.167 C 34.271 104.167,33.333 105.104,33.333 106.250 C 33.333 107.396,32.396 108.333,31.250 108.333 C 29.861 108.333,29.167 109.722,29.167 112.500 C 29.167 115.278,28.472 116.667,27.083 116.667 C 25.694 116.667,25.000 118.056,25.000 120.833 C 25.000 123.611,24.306 125.000,22.917 125.000 C 21.373 125.000,20.833 126.620,20.833 131.250 C 20.833 135.880,20.293 137.500,18.750 137.500 C 17.130 137.500,16.667 139.352,16.667 145.833 C 16.667 152.315,16.204 154.167,14.583 154.167 C 12.917 154.167,12.500 156.250,12.500 164.583 C 12.500 172.917,12.083 175.000,10.417 175.000 C 8.642 175.000,8.333 178.704,8.333 200.000 C 8.333 221.296,8.642 225.000,10.417 225.000 C 12.114 225.000,12.500 227.315,12.500 237.500 C 12.500 247.685,12.886 250.000,14.583 250.000 C 16.127 250.000,16.667 251.620,16.667 256.250 C 16.667 260.880,17.207 262.500,18.750 262.500 C 20.293 262.500,20.833 264.120,20.833 268.750 C 20.833 273.380,21.373 275.000,22.917 275.000 C 24.306 275.000,25.000 276.389,25.000 279.167 C 25.000 281.944,25.694 283.333,27.083 283.333 C 28.472 283.333,29.167 284.722,29.167 287.500 C 29.167 290.278,29.861 291.667,31.250 291.667 C 32.639 291.667,33.333 293.056,33.333 295.833 C 33.333 298.611,34.028 300.000,35.417 300.000 C 36.563 300.000,37.500 300.938,37.500 302.083 C 37.500 303.229,38.438 304.167,39.583 304.167 C 40.972 304.167,41.667 305.556,41.667 308.333 C 41.667 311.111,42.361 312.500,43.750 312.500 C 44.896 312.500,45.833 313.438,45.833 314.583 C 45.833 315.729,46.771 316.667,47.917 316.667 C 49.063 316.667,50.000 317.604,50.000 318.750 C 50.000 319.896,50.937 320.833,52.083 320.833 C 53.229 320.833,54.167 321.771,54.167 322.917 C 54.167 324.063,55.104 325.000,56.250 325.000 C 57.396 325.000,58.333 325.938,58.333 327.083 C 58.333 328.229,59.271 329.167,60.417 329.167 C 61.806 329.167,62.500 330.556,62.500 333.333 C 62.500 337.037,62.963 337.500,66.667 337.500 C 69.444 337.500,70.833 338.194,70.833 339.583 C 70.833 340.729,71.771 341.667,72.917 341.667 C 74.063 341.667,75.000 342.604,75.000 343.750 C 75.000 344.896,75.938 345.833,77.083 345.833 C 78.229 345.833,79.167 346.771,79.167 347.917 C 79.167 349.063,80.104 350.000,81.250 350.000 C 82.396 350.000,83.333 350.938,83.333 352.083 C 83.333 353.229,84.271 354.167,85.417 354.167 C 86.563 354.167,87.500 355.104,87.500 356.250 C 87.500 357.639,88.889 358.333,91.667 358.333 C 94.444 358.333,95.833 359.028,95.833 360.417 C 95.833 361.562,96.771 362.500,97.917 362.500 C 99.063 362.500,100.000 363.438,100.000 364.583 C 100.000 365.972,101.389 366.667,104.167 366.667 C 106.944 366.667,108.333 367.361,108.333 368.750 C 108.333 370.139,109.722 370.833,112.500 370.833 C 115.278 370.833,116.667 371.528,116.667 372.917 C 116.667 374.306,118.056 375.000,120.833 375.000 C 123.611 375.000,125.000 375.694,125.000 377.083 C 125.000 378.627,126.620 379.167,131.250 379.167 C 135.880 379.167,137.500 379.707,137.500 381.250 C 137.500 382.793,139.120 383.333,143.750 383.333 C 148.380 383.333,150.000 383.873,150.000 385.417 C 150.000 387.083,152.083 387.500,160.417 387.500 C 168.750 387.500,170.833 387.917,170.833 389.583 C 170.833 391.369,175.000 391.667,200.000 391.667 C 225.000 391.667,229.167 391.369,229.167 389.583 C 229.167 387.917,231.250 387.500,239.583 387.500 C 247.917 387.500,250.000 387.083,250.000 385.417 C 250.000 383.873,251.620 383.333,256.250 383.333 C 260.880 383.333,262.500 382.793,262.500 381.250 C 262.500 379.707,264.120 379.167,268.750 379.167 C 273.380 379.167,275.000 378.627,275.000 377.083 C 275.000 375.694,276.389 375.000,279.167 375.000 C 281.944 375.000,283.333 374.306,283.333 372.917 C 283.333 371.528,284.722 370.833,287.500 370.833 C 290.278 370.833,291.667 370.139,291.667 368.750 C 291.667 367.361,293.056 366.667,295.833 366.667 C 298.611 366.667,300.000 365.972,300.000 364.583 C 300.000 363.438,300.938 362.500,302.083 362.500 C 303.229 362.500,304.167 361.562,304.167 360.417 C 304.167 359.028,305.556 358.333,308.333 358.333 C 311.111 358.333,312.500 357.639,312.500 356.250 C 312.500 355.104,313.438 354.167,314.583 354.167 C 315.729 354.167,316.667 353.229,316.667 352.083 C 316.667 350.938,317.604 350.000,318.750 350.000 C 319.896 350.000,320.833 349.063,320.833 347.917 C 320.833 346.771,321.771 345.833,322.917 345.833 C 324.063 345.833,325.000 344.896,325.000 343.750 C 325.000 342.604,325.938 341.667,327.083 341.667 C 328.229 341.667,329.167 340.729,329.167 339.583 C 329.167 338.194,330.556 337.500,333.333 337.500 C 337.037 337.500,337.500 337.037,337.500 333.333 C 337.500 330.556,338.194 329.167,339.583 329.167 C 340.729 329.167,341.667 328.229,341.667 327.083 C 341.667 325.938,342.604 325.000,343.750 325.000 C 344.896 325.000,345.833 324.063,345.833 322.917 C 345.833 321.771,346.771 320.833,347.917 320.833 C 349.063 320.833,350.000 319.896,350.000 318.750 C 350.000 317.604,350.938 316.667,352.083 316.667 C 353.229 316.667,354.167 315.729,354.167 314.583 C 354.167 313.438,355.104 312.500,356.250 312.500 C 357.639 312.500,358.333 311.111,358.333 308.333 C 358.333 305.556,359.028 304.167,360.417 304.167 C 361.562 304.167,362.500 303.229,362.500 302.083 C 362.500 300.938,363.438 300.000,364.583 300.000 C 365.972 300.000,366.667 298.611,366.667 295.833 C 366.667 293.056,367.361 291.667,368.750 291.667 C 370.139 291.667,370.833 290.278,370.833 287.500 C 370.833 284.722,371.528 283.333,372.917 283.333 C 374.306 283.333,375.000 281.944,375.000 279.167 C 375.000 276.389,375.694 275.000,377.083 275.000 C 378.627 275.000,379.167 273.380,379.167 268.750 C 379.167 264.120,379.707 262.500,381.250 262.500 C 382.793 262.500,383.333 260.880,383.333 256.250 C 383.333 251.620,383.873 250.000,385.417 250.000 C 387.114 250.000,387.500 247.685,387.500 237.500 C 387.500 227.315,387.886 225.000,389.583 225.000 C 391.358 225.000,391.667 221.296,391.667 200.000 C 391.667 178.704,391.358 175.000,389.583 175.000 C 387.917 175.000,387.500 172.917,387.500 164.583 C 387.500 156.250,387.083 154.167,385.417 154.167 C 383.796 154.167,383.333 152.315,383.333 145.833 C 383.333 139.352,382.870 137.500,381.250 137.500 C 379.707 137.500,379.167 135.880,379.167 131.250 C 379.167 126.620,378.627 125.000,377.083 125.000 C 375.694 125.000,375.000 123.611,375.000 120.833 C 375.000 118.056,374.306 116.667,372.917 116.667 C 371.528 116.667,370.833 115.278,370.833 112.500 C 370.833 109.722,370.139 108.333,368.750 108.333 C 367.604 108.333,366.667 107.396,366.667 106.250 C 366.667 105.104,365.729 104.167,364.583 104.167 C 363.194 104.167,362.500 102.778,362.500 100.000 C 362.500 97.222,361.806 95.833,360.417 95.833 C 359.271 95.833,358.333 94.896,358.333 93.750 C 358.333 92.604,357.396 91.667,356.250 91.667 C 354.861 91.667,354.167 90.278,354.167 87.500 C 354.167 84.722,353.472 83.333,352.083 83.333 C 350.938 83.333,350.000 82.396,350.000 81.250 C 350.000 80.104,349.063 79.167,347.917 79.167 C 346.771 79.167,345.833 78.229,345.833 77.083 C 345.833 75.938,344.896 75.000,343.750 75.000 C 342.604 75.000,341.667 74.063,341.667 72.917 C 341.667 71.771,340.729 70.833,339.583 70.833 C 338.194 70.833,337.500 69.444,337.500 66.667 C 337.500 62.963,337.037 62.500,333.333 62.500 C 330.556 62.500,329.167 61.806,329.167 60.417 C 329.167 59.271,328.229 58.333,327.083 58.333 C 325.938 58.333,325.000 57.396,325.000 56.250 C 325.000 55.104,324.063 54.167,322.917 54.167 C 321.771 54.167,320.833 53.229,320.833 52.083 C 320.833 50.937,319.896 50.000,318.750 50.000 C 317.604 50.000,316.667 49.063,316.667 47.917 C 316.667 46.771,315.729 45.833,314.583 45.833 C 313.438 45.833,312.500 44.896,312.500 43.750 C 312.500 42.361,311.111 41.667,308.333 41.667 C 305.556 41.667,304.167 40.972,304.167 39.583 C 304.167 38.194,302.778 37.500,300.000 37.500 C 297.222 37.500,295.833 36.806,295.833 35.417 C 295.833 34.271,294.896 33.333,293.750 33.333 C 292.604 33.333,291.667 32.396,291.667 31.250 C 291.667 29.861,290.278 29.167,287.500 29.167 C 284.722 29.167,283.333 28.472,283.333 27.083 C 283.333 25.694,281.944 25.000,279.167 25.000 C 276.389 25.000,275.000 24.306,275.000 22.917 C 275.000 21.373,273.380 20.833,268.750 20.833 C 264.120 20.833,262.500 20.293,262.500 18.750 C 262.500 17.130,260.648 16.667,254.167 16.667 C 247.685 16.667,245.833 16.204,245.833 14.583 C 245.833 12.917,243.750 12.500,235.417 12.500 C 227.083 12.500,225.000 12.083,225.000 10.417 C 225.000 8.642,221.296 8.333,200.000 8.333 C 178.704 8.333,175.000 8.642,175.000 10.417 M241.667 27.083 C 241.667 28.627,243.287 29.167,247.917 29.167 C 252.546 29.167,254.167 29.707,254.167 31.250 C 254.167 32.793,255.787 33.333,260.417 33.333 C 265.046 33.333,266.667 33.873,266.667 35.417 C 266.667 36.806,268.056 37.500,270.833 37.500 C 273.611 37.500,275.000 38.194,275.000 39.583 C 275.000 40.972,276.389 41.667,279.167 41.667 C 281.944 41.667,283.333 42.361,283.333 43.750 C 283.333 45.139,284.722 45.833,287.500 45.833 C 290.278 45.833,291.667 46.528,291.667 47.917 C 291.667 49.306,293.056 50.000,295.833 50.000 C 298.611 50.000,300.000 50.694,300.000 52.083 C 300.000 53.229,300.938 54.167,302.083 54.167 C 303.229 54.167,304.167 55.104,304.167 56.250 C 304.167 57.639,305.556 58.333,308.333 58.333 C 311.111 58.333,312.500 59.028,312.500 60.417 C 312.500 61.563,313.438 62.500,314.583 62.500 C 315.729 62.500,316.667 63.437,316.667 64.583 C 316.667 65.729,317.604 66.667,318.750 66.667 C 319.896 66.667,320.833 67.604,320.833 68.750 C 320.833 69.896,319.896 70.833,318.750 70.833 C 317.604 70.833,316.667 71.771,316.667 72.917 C 316.667 74.306,315.278 75.000,312.500 75.000 C 309.722 75.000,308.333 75.694,308.333 77.083 C 308.333 78.472,306.944 79.167,304.167 79.167 C 301.389 79.167,300.000 79.861,300.000 81.250 C 300.000 82.639,298.611 83.333,295.833 83.333 C 293.056 83.333,291.667 84.028,291.667 85.417 C 291.667 86.806,290.278 87.500,287.500 87.500 C 284.722 87.500,283.333 88.194,283.333 89.583 C 283.333 90.972,281.944 91.667,279.167 91.667 C 276.389 91.667,275.000 92.361,275.000 93.750 C 275.000 95.139,273.611 95.833,270.833 95.833 C 268.056 95.833,266.667 96.528,266.667 97.917 C 266.667 99.306,265.278 100.000,262.500 100.000 C 259.722 100.000,258.333 100.694,258.333 102.083 C 258.333 103.472,256.944 104.167,254.167 104.167 C 251.389 104.167,250.000 104.861,250.000 106.250 C 250.000 107.639,248.611 108.333,245.833 108.333 C 243.056 108.333,241.667 109.028,241.667 110.417 C 241.667 111.806,240.278 112.500,237.500 112.500 C 234.722 112.500,233.333 113.194,233.333 114.583 C 233.333 115.972,231.944 116.667,229.167 116.667 C 226.389 116.667,225.000 117.361,225.000 118.750 C 225.000 120.139,223.611 120.833,220.833 120.833 C 218.056 120.833,216.667 121.528,216.667 122.917 C 216.667 124.306,215.278 125.000,212.500 125.000 C 209.722 125.000,208.333 124.306,208.333 122.917 C 208.333 121.771,207.396 120.833,206.250 120.833 C 205.104 120.833,204.167 119.896,204.167 118.750 C 204.167 117.604,203.229 116.667,202.083 116.667 C 200.938 116.667,200.000 115.729,200.000 114.583 C 200.000 113.437,199.062 112.500,197.917 112.500 C 196.771 112.500,195.833 111.563,195.833 110.417 C 195.833 109.271,194.896 108.333,193.750 108.333 C 192.604 108.333,191.667 107.396,191.667 106.250 C 191.667 105.104,190.729 104.167,189.583 104.167 C 188.438 104.167,187.500 103.229,187.500 102.083 C 187.500 100.937,186.562 100.000,185.417 100.000 C 184.271 100.000,183.333 99.063,183.333 97.917 C 183.333 96.771,182.396 95.833,181.250 95.833 C 180.104 95.833,179.167 94.896,179.167 93.750 C 179.167 92.604,178.229 91.667,177.083 91.667 C 175.938 91.667,175.000 90.729,175.000 89.583 C 175.000 88.438,174.063 87.500,172.917 87.500 C 171.771 87.500,170.833 86.563,170.833 85.417 C 170.833 84.271,169.896 83.333,168.750 83.333 C 167.604 83.333,166.667 82.396,166.667 81.250 C 166.667 80.104,165.729 79.167,164.583 79.167 C 163.438 79.167,162.500 78.229,162.500 77.083 C 162.500 75.938,161.563 75.000,160.417 75.000 C 159.271 75.000,158.333 74.063,158.333 72.917 C 158.333 71.771,157.396 70.833,156.250 70.833 C 155.104 70.833,154.167 69.896,154.167 68.750 C 154.167 67.604,153.229 66.667,152.083 66.667 C 150.938 66.667,150.000 65.729,150.000 64.583 C 150.000 63.437,149.063 62.500,147.917 62.500 C 146.771 62.500,145.833 61.563,145.833 60.417 C 145.833 59.271,144.896 58.333,143.750 58.333 C 142.604 58.333,141.667 57.396,141.667 56.250 C 141.667 55.104,140.729 54.167,139.583 54.167 C 138.438 54.167,137.500 53.229,137.500 52.083 C 137.500 50.937,136.563 50.000,135.417 50.000 C 134.271 50.000,133.333 49.063,133.333 47.917 C 133.333 46.771,132.396 45.833,131.250 45.833 C 130.104 45.833,129.167 44.896,129.167 43.750 C 129.167 42.604,128.229 41.667,127.083 41.667 C 125.937 41.667,125.000 40.729,125.000 39.583 C 125.000 38.040,126.620 37.500,131.250 37.500 C 135.880 37.500,137.500 36.960,137.500 35.417 C 137.500 34.028,138.889 33.333,141.667 33.333 C 144.444 33.333,145.833 32.639,145.833 31.250 C 145.833 29.630,147.685 29.167,154.167 29.167 C 160.648 29.167,162.500 28.704,162.500 27.083 C 162.500 25.280,167.824 25.000,202.083 25.000 C 236.343 25.000,241.667 25.280,241.667 27.083 M162.500 35.417 C 162.500 36.563,161.563 37.500,160.417 37.500 C 159.271 37.500,158.333 38.438,158.333 39.583 C 158.333 40.729,157.396 41.667,156.250 41.667 C 154.861 41.667,154.167 43.056,154.167 45.833 C 154.167 48.611,153.472 50.000,152.083 50.000 C 150.938 50.000,150.000 50.937,150.000 52.083 C 150.000 53.229,150.938 54.167,152.083 54.167 C 153.229 54.167,154.167 55.104,154.167 56.250 C 154.167 57.639,155.556 58.333,158.333 58.333 C 161.111 58.333,162.500 59.028,162.500 60.417 C 162.500 61.806,163.889 62.500,166.667 62.500 C 169.444 62.500,170.833 63.194,170.833 64.583 C 170.833 65.729,171.771 66.667,172.917 66.667 C 174.460 66.667,175.000 65.046,175.000 60.417 C 175.000 55.787,174.460 54.167,172.917 54.167 C 171.528 54.167,170.833 52.778,170.833 50.000 C 170.833 47.222,170.139 45.833,168.750 45.833 C 167.361 45.833,166.667 47.222,166.667 50.000 C 166.667 52.778,167.361 54.167,168.750 54.167 C 169.896 54.167,170.833 55.104,170.833 56.250 C 170.833 57.639,169.444 58.333,166.667 58.333 C 163.889 58.333,162.500 57.639,162.500 56.250 C 162.500 54.861,161.111 54.167,158.333 54.167 C 155.556 54.167,154.167 53.472,154.167 52.083 C 154.167 50.937,155.104 50.000,156.250 50.000 C 157.639 50.000,158.333 48.611,158.333 45.833 C 158.333 43.056,159.028 41.667,160.417 41.667 C 161.563 41.667,162.500 40.729,162.500 39.583 C 162.500 38.438,163.438 37.500,164.583 37.500 C 165.729 37.500,166.667 36.563,166.667 35.417 C 166.667 34.271,165.729 33.333,164.583 33.333 C 163.438 33.333,162.500 34.271,162.500 35.417 M187.500 58.333 C 187.500 79.630,187.809 83.333,189.583 83.333 C 191.250 83.333,191.667 81.250,191.667 72.917 C 191.667 64.583,192.083 62.500,193.750 62.500 C 194.896 62.500,195.833 63.437,195.833 64.583 C 195.833 65.729,196.771 66.667,197.917 66.667 C 199.306 66.667,200.000 68.056,200.000 70.833 C 200.000 73.611,200.694 75.000,202.083 75.000 C 203.472 75.000,204.167 73.611,204.167 70.833 C 204.167 68.056,203.472 66.667,202.083 66.667 C 200.938 66.667,200.000 65.729,200.000 64.583 C 200.000 63.437,199.062 62.500,197.917 62.500 C 196.771 62.500,195.833 61.563,195.833 60.417 C 195.833 59.271,194.896 58.333,193.750 58.333 C 192.207 58.333,191.667 56.713,191.667 52.083 C 191.667 47.454,192.207 45.833,193.750 45.833 C 194.896 45.833,195.833 46.771,195.833 47.917 C 195.833 49.306,197.222 50.000,200.000 50.000 C 202.778 50.000,204.167 49.306,204.167 47.917 C 204.167 46.528,202.778 45.833,200.000 45.833 C 196.296 45.833,195.833 45.370,195.833 41.667 C 195.833 38.889,195.139 37.500,193.750 37.500 C 192.604 37.500,191.667 36.563,191.667 35.417 C 191.667 34.271,190.729 33.333,189.583 33.333 C 187.809 33.333,187.500 37.037,187.500 58.333 M212.500 41.667 C 212.500 44.444,213.194 45.833,214.583 45.833 C 215.729 45.833,216.667 46.771,216.667 47.917 C 216.667 49.063,217.604 50.000,218.750 50.000 C 219.896 50.000,220.833 50.937,220.833 52.083 C 220.833 53.229,221.771 54.167,222.917 54.167 C 224.306 54.167,225.000 55.556,225.000 58.333 C 225.000 62.037,225.463 62.500,229.167 62.500 C 231.944 62.500,233.333 63.194,233.333 64.583 C 233.333 65.729,234.271 66.667,235.417 66.667 C 237.083 66.667,237.500 64.583,237.500 56.250 C 237.500 47.917,237.083 45.833,235.417 45.833 C 234.028 45.833,233.333 44.444,233.333 41.667 L 233.333 37.500 222.917 37.500 L 212.500 37.500 212.500 41.667 M229.167 43.750 C 229.167 44.896,230.104 45.833,231.250 45.833 C 232.793 45.833,233.333 47.454,233.333 52.083 C 233.333 56.713,232.793 58.333,231.250 58.333 C 230.104 58.333,229.167 57.396,229.167 56.250 C 229.167 55.104,228.229 54.167,227.083 54.167 C 225.938 54.167,225.000 53.229,225.000 52.083 C 225.000 50.937,224.062 50.000,222.917 50.000 C 221.771 50.000,220.833 49.063,220.833 47.917 C 220.833 46.771,219.896 45.833,218.750 45.833 C 217.604 45.833,216.667 44.896,216.667 43.750 C 216.667 42.207,218.287 41.667,222.917 41.667 C 227.546 41.667,229.167 42.207,229.167 43.750 M112.500 58.333 C 112.500 68.519,112.886 70.833,114.583 70.833 C 116.281 70.833,116.667 73.148,116.667 83.333 C 116.667 93.519,117.052 95.833,118.750 95.833 C 120.417 95.833,120.833 97.917,120.833 106.250 C 120.833 114.583,121.250 116.667,122.917 116.667 C 124.614 116.667,125.000 118.981,125.000 129.167 C 125.000 139.352,125.386 141.667,127.083 141.667 C 128.781 141.667,129.167 143.981,129.167 154.167 C 129.167 164.352,128.781 166.667,127.083 166.667 C 125.937 166.667,125.000 167.604,125.000 168.750 C 125.000 170.139,123.611 170.833,120.833 170.833 C 118.056 170.833,116.667 171.528,116.667 172.917 C 116.667 174.306,115.278 175.000,112.500 175.000 C 109.722 175.000,108.333 175.694,108.333 177.083 C 108.333 178.472,106.944 179.167,104.167 179.167 C 101.389 179.167,100.000 179.861,100.000 181.250 C 100.000 182.639,98.611 183.333,95.833 183.333 C 93.056 183.333,91.667 184.028,91.667 185.417 C 91.667 186.806,90.278 187.500,87.500 187.500 C 84.722 187.500,83.333 188.194,83.333 189.583 C 83.333 190.972,81.944 191.667,79.167 191.667 C 76.389 191.667,75.000 192.361,75.000 193.750 C 75.000 195.139,73.611 195.833,70.833 195.833 C 68.056 195.833,66.667 196.528,66.667 197.917 C 66.667 199.306,65.278 200.000,62.500 200.000 C 59.722 200.000,58.333 200.694,58.333 202.083 C 58.333 203.472,56.944 204.167,54.167 204.167 C 51.389 204.167,50.000 204.861,50.000 206.250 C 50.000 207.639,48.611 208.333,45.833 208.333 C 43.056 208.333,41.667 209.028,41.667 210.417 C 41.667 211.806,40.278 212.500,37.500 212.500 C 34.722 212.500,33.333 213.194,33.333 214.583 C 33.333 215.972,31.944 216.667,29.167 216.667 L 25.000 216.667 25.000 187.500 C 25.000 162.500,25.298 158.333,27.083 158.333 C 28.627 158.333,29.167 156.713,29.167 152.083 C 29.167 147.454,29.707 145.833,31.250 145.833 C 32.793 145.833,33.333 144.213,33.333 139.583 C 33.333 134.954,33.873 133.333,35.417 133.333 C 36.960 133.333,37.500 131.713,37.500 127.083 C 37.500 122.454,38.040 120.833,39.583 120.833 C 40.972 120.833,41.667 119.444,41.667 116.667 C 41.667 113.889,42.361 112.500,43.750 112.500 C 44.896 112.500,45.833 111.563,45.833 110.417 C 45.833 109.271,46.771 108.333,47.917 108.333 C 49.306 108.333,50.000 106.944,50.000 104.167 C 50.000 101.389,50.694 100.000,52.083 100.000 C 53.229 100.000,54.167 99.063,54.167 97.917 C 54.167 96.771,55.104 95.833,56.250 95.833 C 57.639 95.833,58.333 94.444,58.333 91.667 C 58.333 88.889,59.028 87.500,60.417 87.500 C 61.563 87.500,62.500 86.563,62.500 85.417 C 62.500 84.271,63.437 83.333,64.583 83.333 C 65.729 83.333,66.667 82.396,66.667 81.250 C 66.667 80.104,67.604 79.167,68.750 79.167 C 69.896 79.167,70.833 78.229,70.833 77.083 C 70.833 75.694,72.222 75.000,75.000 75.000 C 77.778 75.000,79.167 74.306,79.167 72.917 C 79.167 71.771,80.104 70.833,81.250 70.833 C 82.396 70.833,83.333 69.896,83.333 68.750 C 83.333 67.604,84.271 66.667,85.417 66.667 C 86.563 66.667,87.500 65.729,87.500 64.583 C 87.500 63.437,88.438 62.500,89.583 62.500 C 90.729 62.500,91.667 61.563,91.667 60.417 C 91.667 59.271,92.604 58.333,93.750 58.333 C 94.896 58.333,95.833 57.396,95.833 56.250 C 95.833 54.861,97.222 54.167,100.000 54.167 C 102.778 54.167,104.167 53.472,104.167 52.083 C 104.167 50.937,105.104 50.000,106.250 50.000 C 107.396 50.000,108.333 49.063,108.333 47.917 C 108.333 46.771,109.271 45.833,110.417 45.833 C 112.114 45.833,112.500 48.148,112.500 58.333 M250.000 56.250 C 250.000 64.583,250.417 66.667,252.083 66.667 C 253.229 66.667,254.167 67.604,254.167 68.750 C 254.167 69.896,255.104 70.833,256.250 70.833 C 257.396 70.833,258.333 71.771,258.333 72.917 C 258.333 74.063,259.271 75.000,260.417 75.000 C 261.563 75.000,262.500 75.938,262.500 77.083 C 262.500 78.472,263.889 79.167,266.667 79.167 C 269.444 79.167,270.833 78.472,270.833 77.083 C 270.833 75.938,271.771 75.000,272.917 75.000 C 274.306 75.000,275.000 73.611,275.000 70.833 C 275.000 68.056,275.694 66.667,277.083 66.667 C 278.229 66.667,279.167 65.729,279.167 64.583 C 279.167 63.437,280.104 62.500,281.250 62.500 C 282.396 62.500,283.333 61.563,283.333 60.417 C 283.333 59.271,282.396 58.333,281.250 58.333 C 280.104 58.333,279.167 57.396,279.167 56.250 C 279.167 54.707,277.546 54.167,272.917 54.167 C 268.287 54.167,266.667 53.627,266.667 52.083 C 266.667 50.937,265.729 50.000,264.583 50.000 C 263.438 50.000,262.500 49.063,262.500 47.917 C 262.500 46.373,260.880 45.833,256.250 45.833 L 250.000 45.833 250.000 56.250 M262.500 52.083 C 262.500 53.229,263.438 54.167,264.583 54.167 C 265.729 54.167,266.667 55.104,266.667 56.250 C 266.667 57.793,268.287 58.333,272.917 58.333 C 277.546 58.333,279.167 58.873,279.167 60.417 C 279.167 61.563,278.229 62.500,277.083 62.500 C 275.938 62.500,275.000 63.437,275.000 64.583 C 275.000 65.729,274.063 66.667,272.917 66.667 C 271.771 66.667,270.833 67.604,270.833 68.750 C 270.833 69.896,269.896 70.833,268.750 70.833 C 267.604 70.833,266.667 71.771,266.667 72.917 C 266.667 74.063,265.729 75.000,264.583 75.000 C 263.438 75.000,262.500 74.063,262.500 72.917 C 262.500 71.771,261.563 70.833,260.417 70.833 C 259.271 70.833,258.333 69.896,258.333 68.750 C 258.333 67.604,257.396 66.667,256.250 66.667 C 254.630 66.667,254.167 64.815,254.167 58.333 L 254.167 50.000 258.333 50.000 C 261.111 50.000,262.500 50.694,262.500 52.083 M258.333 60.417 C 258.333 61.563,259.271 62.500,260.417 62.500 C 261.563 62.500,262.500 63.437,262.500 64.583 C 262.500 65.729,263.438 66.667,264.583 66.667 C 265.729 66.667,266.667 65.729,266.667 64.583 C 266.667 63.437,265.729 62.500,264.583 62.500 C 263.438 62.500,262.500 61.563,262.500 60.417 C 262.500 59.271,261.563 58.333,260.417 58.333 C 259.271 58.333,258.333 59.271,258.333 60.417 M100.000 68.750 C 100.000 69.896,99.063 70.833,97.917 70.833 C 96.528 70.833,95.833 72.222,95.833 75.000 C 95.833 77.778,95.139 79.167,93.750 79.167 C 92.604 79.167,91.667 80.104,91.667 81.250 C 91.667 82.396,90.729 83.333,89.583 83.333 C 88.194 83.333,87.500 84.722,87.500 87.500 C 87.500 90.278,86.806 91.667,85.417 91.667 C 84.271 91.667,83.333 92.604,83.333 93.750 C 83.333 94.896,82.396 95.833,81.250 95.833 C 80.104 95.833,79.167 96.771,79.167 97.917 C 79.167 99.063,78.229 100.000,77.083 100.000 C 75.938 100.000,75.000 100.937,75.000 102.083 C 75.000 103.229,75.938 104.167,77.083 104.167 C 78.229 104.167,79.167 103.229,79.167 102.083 C 79.167 100.694,80.556 100.000,83.333 100.000 C 87.037 100.000,87.500 100.463,87.500 104.167 C 87.500 106.944,88.194 108.333,89.583 108.333 C 90.972 108.333,91.667 109.722,91.667 112.500 C 91.667 115.278,92.361 116.667,93.750 116.667 C 94.896 116.667,95.833 117.604,95.833 118.750 C 95.833 119.896,96.771 120.833,97.917 120.833 C 99.063 120.833,100.000 119.896,100.000 118.750 C 100.000 117.604,99.063 116.667,97.917 116.667 C 96.373 116.667,95.833 115.046,95.833 110.417 C 95.833 105.787,95.293 104.167,93.750 104.167 C 92.604 104.167,91.667 103.229,91.667 102.083 C 91.667 100.937,92.604 100.000,93.750 100.000 C 94.896 100.000,95.833 99.063,95.833 97.917 C 95.833 96.771,94.896 95.833,93.750 95.833 C 92.604 95.833,91.667 96.771,91.667 97.917 C 91.667 99.063,90.729 100.000,89.583 100.000 C 88.194 100.000,87.500 98.611,87.500 95.833 C 87.500 93.056,88.194 91.667,89.583 91.667 C 90.972 91.667,91.667 90.278,91.667 87.500 C 91.667 83.796,92.130 83.333,95.833 83.333 C 99.846 83.333,100.000 83.565,100.000 89.583 C 100.000 94.213,100.540 95.833,102.083 95.833 C 103.472 95.833,104.167 97.222,104.167 100.000 C 104.167 102.778,104.861 104.167,106.250 104.167 C 107.639 104.167,108.333 102.778,108.333 100.000 C 108.333 97.222,107.639 95.833,106.250 95.833 C 104.707 95.833,104.167 94.213,104.167 89.583 C 104.167 84.954,103.627 83.333,102.083 83.333 C 100.694 83.333,100.000 81.944,100.000 79.167 C 100.000 76.389,100.694 75.000,102.083 75.000 C 103.472 75.000,104.167 73.611,104.167 70.833 C 104.167 68.056,103.472 66.667,102.083 66.667 C 100.937 66.667,100.000 67.604,100.000 68.750 M137.500 72.917 C 137.500 74.063,138.438 75.000,139.583 75.000 C 140.729 75.000,141.667 75.938,141.667 77.083 C 141.667 78.229,142.604 79.167,143.750 79.167 C 144.896 79.167,145.833 80.104,145.833 81.250 C 145.833 82.396,146.771 83.333,147.917 83.333 C 149.063 83.333,150.000 84.271,150.000 85.417 C 150.000 86.563,150.938 87.500,152.083 87.500 C 153.229 87.500,154.167 88.438,154.167 89.583 C 154.167 90.729,155.104 91.667,156.250 91.667 C 157.396 91.667,158.333 92.604,158.333 93.750 C 158.333 94.896,159.271 95.833,160.417 95.833 C 161.563 95.833,162.500 96.771,162.500 97.917 C 162.500 99.063,163.438 100.000,164.583 100.000 C 165.729 100.000,166.667 100.937,166.667 102.083 C 166.667 103.229,167.604 104.167,168.750 104.167 C 169.896 104.167,170.833 105.104,170.833 106.250 C 170.833 107.396,171.771 108.333,172.917 108.333 C 174.063 108.333,175.000 109.271,175.000 110.417 C 175.000 111.563,175.938 112.500,177.083 112.500 C 178.229 112.500,179.167 113.437,179.167 114.583 C 179.167 115.729,180.104 116.667,181.250 116.667 C 182.396 116.667,183.333 117.604,183.333 118.750 C 183.333 119.896,184.271 120.833,185.417 120.833 C 186.562 120.833,187.500 121.771,187.500 122.917 C 187.500 124.063,188.438 125.000,189.583 125.000 C 190.729 125.000,191.667 125.937,191.667 127.083 C 191.667 128.229,192.604 129.167,193.750 129.167 C 194.896 129.167,195.833 130.104,195.833 131.250 C 195.833 132.396,196.771 133.333,197.917 133.333 C 199.062 133.333,200.000 134.271,200.000 135.417 C 200.000 136.806,198.611 137.500,195.833 137.500 C 193.056 137.500,191.667 138.194,191.667 139.583 C 191.667 140.972,190.278 141.667,187.500 141.667 C 184.722 141.667,183.333 142.361,183.333 143.750 C 183.333 145.293,181.713 145.833,177.083 145.833 C 172.454 145.833,170.833 146.373,170.833 147.917 C 170.833 149.306,169.444 150.000,166.667 150.000 C 163.889 150.000,162.500 150.694,162.500 152.083 C 162.500 153.472,161.111 154.167,158.333 154.167 C 155.556 154.167,154.167 154.861,154.167 156.250 C 154.167 157.639,152.778 158.333,150.000 158.333 L 145.833 158.333 145.833 150.000 C 145.833 143.519,145.370 141.667,143.750 141.667 C 142.052 141.667,141.667 139.352,141.667 129.167 C 141.667 118.981,141.281 116.667,139.583 116.667 C 137.886 116.667,137.500 114.352,137.500 104.167 C 137.500 93.981,137.114 91.667,135.417 91.667 C 133.750 91.667,133.333 89.583,133.333 81.250 C 133.333 72.917,133.750 70.833,135.417 70.833 C 136.563 70.833,137.500 71.771,137.500 72.917 M333.333 85.417 C 333.333 86.563,334.271 87.500,335.417 87.500 C 336.563 87.500,337.500 88.438,337.500 89.583 C 337.500 90.729,338.438 91.667,339.583 91.667 C 340.729 91.667,341.667 92.604,341.667 93.750 C 341.667 94.896,342.604 95.833,343.750 95.833 C 345.139 95.833,345.833 97.222,345.833 100.000 C 345.833 102.778,346.528 104.167,347.917 104.167 C 349.063 104.167,350.000 105.104,350.000 106.250 C 350.000 107.396,350.938 108.333,352.083 108.333 C 353.472 108.333,354.167 109.722,354.167 112.500 C 354.167 115.278,354.861 116.667,356.250 116.667 C 357.639 116.667,358.333 118.056,358.333 120.833 C 358.333 123.611,359.028 125.000,360.417 125.000 C 361.806 125.000,362.500 126.389,362.500 129.167 C 362.500 131.944,363.194 133.333,364.583 133.333 C 366.127 133.333,366.667 134.954,366.667 139.583 C 366.667 144.213,367.207 145.833,368.750 145.833 C 370.370 145.833,370.833 147.685,370.833 154.167 C 370.833 160.648,371.296 162.500,372.917 162.500 C 374.717 162.500,375.000 167.593,375.000 200.000 C 375.000 232.407,374.717 237.500,372.917 237.500 C 371.296 237.500,370.833 239.352,370.833 245.833 C 370.833 252.315,370.370 254.167,368.750 254.167 C 367.207 254.167,366.667 255.787,366.667 260.417 C 366.667 265.046,366.127 266.667,364.583 266.667 C 363.194 266.667,362.500 268.056,362.500 270.833 C 362.500 273.611,361.806 275.000,360.417 275.000 C 359.271 275.000,358.333 274.063,358.333 272.917 C 358.333 271.771,357.396 270.833,356.250 270.833 C 355.104 270.833,354.167 269.896,354.167 268.750 C 354.167 267.604,353.229 266.667,352.083 266.667 C 350.938 266.667,350.000 265.729,350.000 264.583 C 350.000 263.438,349.063 262.500,347.917 262.500 C 346.771 262.500,345.833 261.563,345.833 260.417 C 345.833 259.271,344.896 258.333,343.750 258.333 C 342.604 258.333,341.667 257.396,341.667 256.250 C 341.667 255.104,340.729 254.167,339.583 254.167 C 338.438 254.167,337.500 253.229,337.500 252.083 C 337.500 250.938,336.563 250.000,335.417 250.000 C 334.271 250.000,333.333 249.062,333.333 247.917 C 333.333 246.771,332.396 245.833,331.250 245.833 C 330.104 245.833,329.167 244.896,329.167 243.750 C 329.167 242.604,328.229 241.667,327.083 241.667 C 325.938 241.667,325.000 240.729,325.000 239.583 C 325.000 238.438,324.063 237.500,322.917 237.500 C 321.771 237.500,320.833 236.562,320.833 235.417 C 320.833 234.271,319.896 233.333,318.750 233.333 C 317.604 233.333,316.667 232.396,316.667 231.250 C 316.667 230.104,315.729 229.167,314.583 229.167 C 313.438 229.167,312.500 228.229,312.500 227.083 C 312.500 225.938,311.563 225.000,310.417 225.000 C 309.271 225.000,308.333 224.062,308.333 222.917 C 308.333 221.771,307.396 220.833,306.250 220.833 C 305.104 220.833,304.167 219.896,304.167 218.750 C 304.167 217.604,303.229 216.667,302.083 216.667 C 300.938 216.667,300.000 215.729,300.000 214.583 C 300.000 213.438,299.063 212.500,297.917 212.500 C 296.771 212.500,295.833 211.562,295.833 210.417 C 295.833 209.271,294.896 208.333,293.750 208.333 C 292.604 208.333,291.667 207.396,291.667 206.250 C 291.667 205.104,290.729 204.167,289.583 204.167 C 288.438 204.167,287.500 203.229,287.500 202.083 C 287.500 200.938,286.563 200.000,285.417 200.000 C 284.271 200.000,283.333 199.062,283.333 197.917 C 283.333 196.771,282.396 195.833,281.250 195.833 C 279.707 195.833,279.167 194.213,279.167 189.583 C 279.167 184.954,279.707 183.333,281.250 183.333 C 282.639 183.333,283.333 181.944,283.333 179.167 C 283.333 176.389,284.028 175.000,285.417 175.000 C 286.960 175.000,287.500 173.380,287.500 168.750 C 287.500 164.120,288.040 162.500,289.583 162.500 C 290.972 162.500,291.667 161.111,291.667 158.333 C 291.667 155.556,292.361 154.167,293.750 154.167 C 295.139 154.167,295.833 152.778,295.833 150.000 C 295.833 147.222,296.528 145.833,297.917 145.833 C 299.306 145.833,300.000 144.444,300.000 141.667 C 300.000 138.889,300.694 137.500,302.083 137.500 C 303.472 137.500,304.167 136.111,304.167 133.333 C 304.167 130.556,304.861 129.167,306.250 129.167 C 307.639 129.167,308.333 127.778,308.333 125.000 C 308.333 122.222,309.028 120.833,310.417 120.833 C 311.806 120.833,312.500 119.444,312.500 116.667 C 312.500 113.889,313.194 112.500,314.583 112.500 C 315.972 112.500,316.667 111.111,316.667 108.333 C 316.667 105.556,317.361 104.167,318.750 104.167 C 320.139 104.167,320.833 102.778,320.833 100.000 C 320.833 97.222,321.528 95.833,322.917 95.833 C 324.306 95.833,325.000 94.444,325.000 91.667 C 325.000 88.889,325.694 87.500,327.083 87.500 C 328.229 87.500,329.167 86.563,329.167 85.417 C 329.167 84.271,330.104 83.333,331.250 83.333 C 332.396 83.333,333.333 84.271,333.333 85.417 M304.167 102.083 C 304.167 103.229,303.229 104.167,302.083 104.167 C 300.694 104.167,300.000 105.556,300.000 108.333 C 300.000 111.111,299.306 112.500,297.917 112.500 C 296.528 112.500,295.833 113.889,295.833 116.667 C 295.833 119.444,295.139 120.833,293.750 120.833 C 292.361 120.833,291.667 122.222,291.667 125.000 C 291.667 127.778,290.972 129.167,289.583 129.167 C 288.194 129.167,287.500 130.556,287.500 133.333 C 287.500 136.111,286.806 137.500,285.417 137.500 C 284.028 137.500,283.333 138.889,283.333 141.667 C 283.333 144.444,282.639 145.833,281.250 145.833 C 279.861 145.833,279.167 147.222,279.167 150.000 C 279.167 152.778,278.472 154.167,277.083 154.167 C 275.694 154.167,275.000 155.556,275.000 158.333 C 275.000 161.111,274.306 162.500,272.917 162.500 C 271.528 162.500,270.833 163.889,270.833 166.667 C 270.833 169.444,270.139 170.833,268.750 170.833 C 267.207 170.833,266.667 172.454,266.667 177.083 C 266.667 181.713,266.127 183.333,264.583 183.333 C 263.438 183.333,262.500 182.396,262.500 181.250 C 262.500 180.104,261.563 179.167,260.417 179.167 C 259.271 179.167,258.333 178.229,258.333 177.083 C 258.333 175.938,257.396 175.000,256.250 175.000 C 255.104 175.000,254.167 174.063,254.167 172.917 C 254.167 171.771,253.229 170.833,252.083 170.833 C 250.938 170.833,250.000 169.896,250.000 168.750 C 250.000 167.604,249.062 166.667,247.917 166.667 C 246.771 166.667,245.833 165.729,245.833 164.583 C 245.833 163.438,244.896 162.500,243.750 162.500 C 242.604 162.500,241.667 161.563,241.667 160.417 C 241.667 159.271,240.729 158.333,239.583 158.333 C 238.438 158.333,237.500 157.396,237.500 156.250 C 237.500 155.104,236.562 154.167,235.417 154.167 C 234.271 154.167,233.333 153.229,233.333 152.083 C 233.333 150.938,232.396 150.000,231.250 150.000 C 230.104 150.000,229.167 149.063,229.167 147.917 C 229.167 146.771,228.229 145.833,227.083 145.833 C 225.938 145.833,225.000 144.896,225.000 143.750 C 225.000 142.604,224.062 141.667,222.917 141.667 C 221.771 141.667,220.833 140.729,220.833 139.583 C 220.833 138.194,222.222 137.500,225.000 137.500 C 227.778 137.500,229.167 136.806,229.167 135.417 C 229.167 134.028,230.556 133.333,233.333 133.333 C 236.111 133.333,237.500 132.639,237.500 131.250 C 237.500 129.861,238.889 129.167,241.667 129.167 C 244.444 129.167,245.833 128.472,245.833 127.083 C 245.833 125.694,247.222 125.000,250.000 125.000 C 252.778 125.000,254.167 124.306,254.167 122.917 C 254.167 121.528,255.556 120.833,258.333 120.833 C 261.111 120.833,262.500 120.139,262.500 118.750 C 262.500 117.361,263.889 116.667,266.667 116.667 C 269.444 116.667,270.833 115.972,270.833 114.583 C 270.833 113.194,272.222 112.500,275.000 112.500 C 277.778 112.500,279.167 111.806,279.167 110.417 C 279.167 109.028,280.556 108.333,283.333 108.333 C 286.111 108.333,287.500 107.639,287.500 106.250 C 287.500 104.861,288.889 104.167,291.667 104.167 C 294.444 104.167,295.833 103.472,295.833 102.083 C 295.833 100.694,297.222 100.000,300.000 100.000 C 302.778 100.000,304.167 100.694,304.167 102.083 M66.667 114.583 C 66.667 115.729,67.604 116.667,68.750 116.667 C 70.139 116.667,70.833 118.056,70.833 120.833 C 70.833 123.611,71.528 125.000,72.917 125.000 C 74.063 125.000,75.000 125.937,75.000 127.083 C 75.000 128.472,73.611 129.167,70.833 129.167 C 68.056 129.167,66.667 129.861,66.667 131.250 C 66.667 132.396,65.729 133.333,64.583 133.333 C 62.963 133.333,62.500 135.185,62.500 141.667 C 62.500 148.148,62.037 150.000,60.417 150.000 C 59.271 150.000,58.333 149.063,58.333 147.917 C 58.333 146.373,56.713 145.833,52.083 145.833 L 45.833 145.833 45.833 137.500 C 45.833 131.019,46.296 129.167,47.917 129.167 C 49.063 129.167,50.000 128.229,50.000 127.083 C 50.000 125.937,49.063 125.000,47.917 125.000 C 46.771 125.000,45.833 125.937,45.833 127.083 C 45.833 128.229,44.896 129.167,43.750 129.167 C 42.130 129.167,41.667 131.019,41.667 137.500 C 41.667 143.981,42.130 145.833,43.750 145.833 C 44.896 145.833,45.833 146.771,45.833 147.917 C 45.833 149.460,47.454 150.000,52.083 150.000 C 56.713 150.000,58.333 150.540,58.333 152.083 C 58.333 153.229,59.271 154.167,60.417 154.167 C 61.563 154.167,62.500 155.104,62.500 156.250 C 62.500 157.396,63.437 158.333,64.583 158.333 C 66.281 158.333,66.667 156.019,66.667 145.833 L 66.667 133.333 72.917 133.333 C 78.935 133.333,79.167 133.179,79.167 129.167 C 79.167 126.389,78.472 125.000,77.083 125.000 C 75.694 125.000,75.000 123.611,75.000 120.833 C 75.000 118.056,74.306 116.667,72.917 116.667 C 71.771 116.667,70.833 115.729,70.833 114.583 C 70.833 113.437,69.896 112.500,68.750 112.500 C 67.604 112.500,66.667 113.437,66.667 114.583 M333.333 114.583 C 333.333 115.729,332.396 116.667,331.250 116.667 C 329.707 116.667,329.167 118.287,329.167 122.917 C 329.167 127.546,328.627 129.167,327.083 129.167 C 325.463 129.167,325.000 131.019,325.000 137.500 C 325.000 143.981,325.463 145.833,327.083 145.833 C 328.229 145.833,329.167 146.771,329.167 147.917 C 329.167 149.063,330.104 150.000,331.250 150.000 C 332.639 150.000,333.333 151.389,333.333 154.167 C 333.333 157.870,333.796 158.333,337.500 158.333 C 340.278 158.333,341.667 157.639,341.667 156.250 C 341.667 155.104,340.729 154.167,339.583 154.167 C 338.438 154.167,337.500 153.229,337.500 152.083 C 337.500 150.938,336.563 150.000,335.417 150.000 C 334.271 150.000,333.333 149.063,333.333 147.917 C 333.333 146.771,334.271 145.833,335.417 145.833 C 336.806 145.833,337.500 144.444,337.500 141.667 C 337.500 138.889,338.194 137.500,339.583 137.500 C 340.972 137.500,341.667 136.111,341.667 133.333 C 341.667 129.630,342.130 129.167,345.833 129.167 C 348.611 129.167,350.000 128.472,350.000 127.083 C 350.000 125.694,348.611 125.000,345.833 125.000 C 343.056 125.000,341.667 124.306,341.667 122.917 C 341.667 121.771,340.729 120.833,339.583 120.833 C 338.194 120.833,337.500 119.444,337.500 116.667 C 337.500 113.889,336.806 112.500,335.417 112.500 C 334.271 112.500,333.333 113.437,333.333 114.583 M58.333 122.917 C 58.333 124.063,59.271 125.000,60.417 125.000 C 61.563 125.000,62.500 124.063,62.500 122.917 C 62.500 121.771,61.563 120.833,60.417 120.833 C 59.271 120.833,58.333 121.771,58.333 122.917 M337.500 129.167 C 337.500 135.648,337.037 137.500,335.417 137.500 C 334.028 137.500,333.333 138.889,333.333 141.667 C 333.333 144.444,332.639 145.833,331.250 145.833 C 329.630 145.833,329.167 143.981,329.167 137.500 C 329.167 131.019,329.630 129.167,331.250 129.167 C 332.639 129.167,333.333 127.778,333.333 125.000 C 333.333 122.222,334.028 120.833,335.417 120.833 C 337.037 120.833,337.500 122.685,337.500 129.167 M50.000 139.583 C 50.000 140.729,50.937 141.667,52.083 141.667 C 53.229 141.667,54.167 140.729,54.167 139.583 C 54.167 138.438,53.229 137.500,52.083 137.500 C 50.937 137.500,50.000 138.438,50.000 139.583 M212.500 152.083 C 212.500 153.229,213.438 154.167,214.583 154.167 C 215.729 154.167,216.667 155.104,216.667 156.250 C 216.667 157.396,217.604 158.333,218.750 158.333 C 219.896 158.333,220.833 159.271,220.833 160.417 C 220.833 161.563,221.771 162.500,222.917 162.500 C 224.062 162.500,225.000 163.438,225.000 164.583 C 225.000 165.729,225.938 166.667,227.083 166.667 C 228.229 166.667,229.167 167.604,229.167 168.750 C 229.167 169.896,230.104 170.833,231.250 170.833 C 232.396 170.833,233.333 171.771,233.333 172.917 C 233.333 174.063,234.271 175.000,235.417 175.000 C 236.562 175.000,237.500 175.938,237.500 177.083 C 237.500 178.229,238.438 179.167,239.583 179.167 C 240.729 179.167,241.667 180.104,241.667 181.250 C 241.667 182.396,242.604 183.333,243.750 183.333 C 244.896 183.333,245.833 184.271,245.833 185.417 C 245.833 186.562,246.771 187.500,247.917 187.500 C 249.062 187.500,250.000 188.438,250.000 189.583 C 250.000 190.729,250.938 191.667,252.083 191.667 C 253.627 191.667,254.167 193.287,254.167 197.917 C 254.167 202.546,253.627 204.167,252.083 204.167 C 250.694 204.167,250.000 205.556,250.000 208.333 C 250.000 211.111,249.306 212.500,247.917 212.500 C 246.528 212.500,245.833 213.889,245.833 216.667 C 245.833 219.444,245.139 220.833,243.750 220.833 C 242.361 220.833,241.667 222.222,241.667 225.000 C 241.667 227.778,240.972 229.167,239.583 229.167 C 238.194 229.167,237.500 230.556,237.500 233.333 C 237.500 236.111,236.806 237.500,235.417 237.500 C 233.873 237.500,233.333 239.120,233.333 243.750 L 233.333 250.000 220.833 250.000 C 210.648 250.000,208.333 249.614,208.333 247.917 C 208.333 246.219,206.019 245.833,195.833 245.833 C 185.648 245.833,183.333 245.448,183.333 243.750 C 183.333 242.083,181.250 241.667,172.917 241.667 L 162.500 241.667 162.500 233.333 C 162.500 226.852,162.037 225.000,160.417 225.000 C 158.750 225.000,158.333 222.917,158.333 214.583 C 158.333 206.250,157.917 204.167,156.250 204.167 C 154.583 204.167,154.167 202.083,154.167 193.750 C 154.167 185.417,153.750 183.333,152.083 183.333 C 150.694 183.333,150.000 181.944,150.000 179.167 C 150.000 176.389,150.694 175.000,152.083 175.000 C 153.229 175.000,154.167 174.063,154.167 172.917 C 154.167 171.373,155.787 170.833,160.417 170.833 C 165.046 170.833,166.667 170.293,166.667 168.750 C 166.667 167.361,168.056 166.667,170.833 166.667 C 173.611 166.667,175.000 165.972,175.000 164.583 C 175.000 163.194,176.389 162.500,179.167 162.500 C 181.944 162.500,183.333 161.806,183.333 160.417 C 183.333 159.028,184.722 158.333,187.500 158.333 C 190.278 158.333,191.667 157.639,191.667 156.250 C 191.667 154.707,193.287 154.167,197.917 154.167 C 202.546 154.167,204.167 153.627,204.167 152.083 C 204.167 150.694,205.556 150.000,208.333 150.000 C 211.111 150.000,212.500 150.694,212.500 152.083 M187.500 164.583 C 187.500 165.729,186.562 166.667,185.417 166.667 C 184.271 166.667,183.333 167.604,183.333 168.750 C 183.333 170.139,181.944 170.833,179.167 170.833 C 176.389 170.833,175.000 171.528,175.000 172.917 C 175.000 174.306,173.611 175.000,170.833 175.000 C 168.056 175.000,166.667 175.694,166.667 177.083 C 166.667 178.229,165.729 179.167,164.583 179.167 C 163.438 179.167,162.500 180.104,162.500 181.250 C 162.500 182.396,161.563 183.333,160.417 183.333 C 158.796 183.333,158.333 185.185,158.333 191.667 C 158.333 198.148,158.796 200.000,160.417 200.000 C 161.806 200.000,162.500 201.389,162.500 204.167 C 162.500 206.944,163.194 208.333,164.583 208.333 C 166.250 208.333,166.667 210.417,166.667 218.750 L 166.667 229.167 170.833 229.167 C 173.611 229.167,175.000 229.861,175.000 231.250 C 175.000 232.639,176.389 233.333,179.167 233.333 C 181.944 233.333,183.333 234.028,183.333 235.417 C 183.333 237.176,186.574 237.500,204.167 237.500 C 221.759 237.500,225.000 237.176,225.000 235.417 C 225.000 234.028,226.389 233.333,229.167 233.333 C 232.870 233.333,233.333 232.870,233.333 229.167 C 233.333 226.389,234.028 225.000,235.417 225.000 C 236.562 225.000,237.500 224.062,237.500 222.917 C 237.500 221.771,238.438 220.833,239.583 220.833 C 241.127 220.833,241.667 219.213,241.667 214.583 C 241.667 209.954,242.207 208.333,243.750 208.333 C 245.370 208.333,245.833 206.481,245.833 200.000 C 245.833 193.519,245.370 191.667,243.750 191.667 C 242.604 191.667,241.667 190.729,241.667 189.583 C 241.667 188.438,240.729 187.500,239.583 187.500 C 238.438 187.500,237.500 186.562,237.500 185.417 C 237.500 184.271,236.562 183.333,235.417 183.333 C 234.271 183.333,233.333 182.396,233.333 181.250 C 233.333 180.104,232.396 179.167,231.250 179.167 C 230.104 179.167,229.167 178.229,229.167 177.083 C 229.167 175.938,228.229 175.000,227.083 175.000 C 225.938 175.000,225.000 174.063,225.000 172.917 C 225.000 171.771,224.062 170.833,222.917 170.833 C 221.771 170.833,220.833 169.896,220.833 168.750 C 220.833 167.604,219.896 166.667,218.750 166.667 C 217.604 166.667,216.667 165.729,216.667 164.583 C 216.667 162.864,214.120 162.500,202.083 162.500 C 190.046 162.500,187.500 162.864,187.500 164.583 M358.333 172.917 C 358.333 177.546,358.873 179.167,360.417 179.167 C 361.806 179.167,362.500 180.556,362.500 183.333 C 362.500 187.346,362.269 187.500,356.250 187.500 C 351.620 187.500,350.000 188.040,350.000 189.583 C 350.000 191.204,351.852 191.667,358.333 191.667 L 366.667 191.667 366.667 185.417 C 366.667 180.787,366.127 179.167,364.583 179.167 C 363.040 179.167,362.500 177.546,362.500 172.917 C 362.500 168.287,361.960 166.667,360.417 166.667 C 358.873 166.667,358.333 168.287,358.333 172.917 M37.500 172.917 C 37.500 174.063,36.563 175.000,35.417 175.000 C 34.271 175.000,33.333 175.938,33.333 177.083 C 33.333 178.229,32.396 179.167,31.250 179.167 C 29.630 179.167,29.167 181.019,29.167 187.500 C 29.167 193.981,29.630 195.833,31.250 195.833 C 32.396 195.833,33.333 196.771,33.333 197.917 C 33.333 199.460,34.954 200.000,39.583 200.000 C 44.213 200.000,45.833 199.460,45.833 197.917 C 45.833 196.771,46.771 195.833,47.917 195.833 C 49.063 195.833,50.000 194.896,50.000 193.750 C 50.000 192.604,50.937 191.667,52.083 191.667 C 53.229 191.667,54.167 190.729,54.167 189.583 C 54.167 188.438,55.104 187.500,56.250 187.500 C 57.396 187.500,58.333 186.562,58.333 185.417 C 58.333 184.271,57.396 183.333,56.250 183.333 C 55.104 183.333,54.167 184.271,54.167 185.417 C 54.167 186.562,53.229 187.500,52.083 187.500 C 50.937 187.500,50.000 188.438,50.000 189.583 C 50.000 190.972,48.611 191.667,45.833 191.667 C 43.056 191.667,41.667 192.361,41.667 193.750 C 41.667 194.896,40.729 195.833,39.583 195.833 C 38.438 195.833,37.500 194.896,37.500 193.750 C 37.500 192.604,36.563 191.667,35.417 191.667 C 33.873 191.667,33.333 190.046,33.333 185.417 C 33.333 180.787,33.873 179.167,35.417 179.167 C 36.563 179.167,37.500 178.229,37.500 177.083 C 37.500 175.938,38.438 175.000,39.583 175.000 C 40.729 175.000,41.667 174.063,41.667 172.917 C 41.667 171.771,40.729 170.833,39.583 170.833 C 38.438 170.833,37.500 171.771,37.500 172.917 M45.833 179.167 C 45.833 182.870,45.370 183.333,41.667 183.333 C 38.889 183.333,37.500 184.028,37.500 185.417 C 37.500 186.806,38.889 187.500,41.667 187.500 C 44.444 187.500,45.833 186.806,45.833 185.417 C 45.833 184.271,46.771 183.333,47.917 183.333 C 49.306 183.333,50.000 181.944,50.000 179.167 C 50.000 176.389,49.306 175.000,47.917 175.000 C 46.528 175.000,45.833 176.389,45.833 179.167 M212.500 181.250 C 212.500 182.396,213.438 183.333,214.583 183.333 C 215.729 183.333,216.667 184.271,216.667 185.417 C 216.667 186.562,217.604 187.500,218.750 187.500 C 219.896 187.500,220.833 188.438,220.833 189.583 C 220.833 190.729,221.771 191.667,222.917 191.667 C 224.062 191.667,225.000 192.604,225.000 193.750 C 225.000 194.896,225.938 195.833,227.083 195.833 C 228.229 195.833,229.167 196.771,229.167 197.917 C 229.167 199.062,230.104 200.000,231.250 200.000 C 232.639 200.000,233.333 201.389,233.333 204.167 C 233.333 206.944,232.639 208.333,231.250 208.333 C 230.104 208.333,229.167 209.271,229.167 210.417 C 229.167 211.562,228.229 212.500,227.083 212.500 C 225.938 212.500,225.000 213.438,225.000 214.583 C 225.000 215.729,224.062 216.667,222.917 216.667 C 221.771 216.667,220.833 217.604,220.833 218.750 C 220.833 219.896,219.896 220.833,218.750 220.833 C 217.604 220.833,216.667 221.771,216.667 222.917 C 216.667 224.614,214.352 225.000,204.167 225.000 C 193.981 225.000,191.667 224.614,191.667 222.917 C 191.667 221.528,190.278 220.833,187.500 220.833 C 184.722 220.833,183.333 220.139,183.333 218.750 C 183.333 217.604,182.396 216.667,181.250 216.667 C 179.630 216.667,179.167 214.815,179.167 208.333 C 179.167 201.852,178.704 200.000,177.083 200.000 C 175.540 200.000,175.000 198.380,175.000 193.750 C 175.000 189.120,175.540 187.500,177.083 187.500 C 178.229 187.500,179.167 186.562,179.167 185.417 C 179.167 183.873,180.787 183.333,185.417 183.333 C 190.046 183.333,191.667 182.793,191.667 181.250 C 191.667 179.583,193.750 179.167,202.083 179.167 C 210.417 179.167,212.500 179.583,212.500 181.250 M133.333 185.417 C 133.333 186.562,134.271 187.500,135.417 187.500 C 137.114 187.500,137.500 189.815,137.500 200.000 C 137.500 210.185,137.886 212.500,139.583 212.500 C 141.281 212.500,141.667 214.815,141.667 225.000 L 141.667 237.500 137.500 237.500 C 134.722 237.500,133.333 236.806,133.333 235.417 C 133.333 233.719,131.019 233.333,120.833 233.333 C 110.648 233.333,108.333 232.948,108.333 231.250 C 108.333 229.552,106.019 229.167,95.833 229.167 C 85.648 229.167,83.333 228.781,83.333 227.083 C 83.333 225.364,80.787 225.000,68.750 225.000 C 56.713 225.000,54.167 224.636,54.167 222.917 C 54.167 221.771,55.104 220.833,56.250 220.833 C 57.396 220.833,58.333 219.896,58.333 218.750 C 58.333 217.207,59.954 216.667,64.583 216.667 C 69.213 216.667,70.833 216.127,70.833 214.583 C 70.833 213.194,72.222 212.500,75.000 212.500 C 77.778 212.500,79.167 211.806,79.167 210.417 C 79.167 209.028,80.556 208.333,83.333 208.333 C 86.111 208.333,87.500 207.639,87.500 206.250 C 87.500 204.861,88.889 204.167,91.667 204.167 C 94.444 204.167,95.833 203.472,95.833 202.083 C 95.833 200.694,97.222 200.000,100.000 200.000 C 102.778 200.000,104.167 199.306,104.167 197.917 C 104.167 196.528,105.556 195.833,108.333 195.833 C 111.111 195.833,112.500 195.139,112.500 193.750 C 112.500 192.361,113.889 191.667,116.667 191.667 C 119.444 191.667,120.833 190.972,120.833 189.583 C 120.833 188.194,122.222 187.500,125.000 187.500 C 127.778 187.500,129.167 186.806,129.167 185.417 C 129.167 184.271,130.104 183.333,131.250 183.333 C 132.396 183.333,133.333 184.271,133.333 185.417 M195.833 189.583 C 195.833 190.729,194.896 191.667,193.750 191.667 C 192.604 191.667,191.667 192.604,191.667 193.750 C 191.667 194.896,190.729 195.833,189.583 195.833 C 188.040 195.833,187.500 197.454,187.500 202.083 C 187.500 206.713,188.040 208.333,189.583 208.333 C 190.729 208.333,191.667 209.271,191.667 210.417 C 191.667 212.037,193.519 212.500,200.000 212.500 C 206.481 212.500,208.333 212.037,208.333 210.417 C 208.333 209.271,209.271 208.333,210.417 208.333 C 212.037 208.333,212.500 206.481,212.500 200.000 C 212.500 193.519,212.037 191.667,210.417 191.667 C 209.271 191.667,208.333 190.729,208.333 189.583 C 208.333 188.040,206.713 187.500,202.083 187.500 C 197.454 187.500,195.833 188.040,195.833 189.583 M341.667 208.333 C 341.667 214.815,341.204 216.667,339.583 216.667 C 338.438 216.667,337.500 217.604,337.500 218.750 C 337.500 220.417,339.583 220.833,347.917 220.833 L 358.333 220.833 358.333 227.083 C 358.333 231.713,358.873 233.333,360.417 233.333 C 361.960 233.333,362.500 231.713,362.500 227.083 C 362.500 222.454,363.040 220.833,364.583 220.833 C 365.729 220.833,366.667 219.896,366.667 218.750 C 366.667 217.604,365.729 216.667,364.583 216.667 C 362.963 216.667,362.500 214.815,362.500 208.333 C 362.500 201.852,362.037 200.000,360.417 200.000 C 359.271 200.000,358.333 200.938,358.333 202.083 C 358.333 203.627,356.713 204.167,352.083 204.167 C 347.454 204.167,345.833 203.627,345.833 202.083 C 345.833 200.938,344.896 200.000,343.750 200.000 C 342.130 200.000,341.667 201.852,341.667 208.333 M270.833 206.250 C 270.833 207.396,271.771 208.333,272.917 208.333 C 274.063 208.333,275.000 209.271,275.000 210.417 C 275.000 211.562,275.938 212.500,277.083 212.500 C 278.229 212.500,279.167 213.438,279.167 214.583 C 279.167 215.729,280.104 216.667,281.250 216.667 C 282.396 216.667,283.333 217.604,283.333 218.750 C 283.333 219.896,284.271 220.833,285.417 220.833 C 286.563 220.833,287.500 221.771,287.500 222.917 C 287.500 224.062,288.438 225.000,289.583 225.000 C 290.729 225.000,291.667 225.938,291.667 227.083 C 291.667 228.229,292.604 229.167,293.750 229.167 C 294.896 229.167,295.833 230.104,295.833 231.250 C 295.833 232.396,296.771 233.333,297.917 233.333 C 299.063 233.333,300.000 234.271,300.000 235.417 C 300.000 236.562,300.938 237.500,302.083 237.500 C 303.229 237.500,304.167 238.438,304.167 239.583 C 304.167 240.729,305.104 241.667,306.250 241.667 C 307.396 241.667,308.333 242.604,308.333 243.750 C 308.333 244.896,309.271 245.833,310.417 245.833 C 311.563 245.833,312.500 246.771,312.500 247.917 C 312.500 249.062,313.438 250.000,314.583 250.000 C 315.729 250.000,316.667 250.938,316.667 252.083 C 316.667 253.229,317.604 254.167,318.750 254.167 C 319.896 254.167,320.833 255.104,320.833 256.250 C 320.833 257.396,321.771 258.333,322.917 258.333 C 324.063 258.333,325.000 259.271,325.000 260.417 C 325.000 261.563,325.938 262.500,327.083 262.500 C 328.229 262.500,329.167 263.438,329.167 264.583 C 329.167 265.729,330.104 266.667,331.250 266.667 C 332.396 266.667,333.333 267.604,333.333 268.750 C 333.333 270.293,331.713 270.833,327.083 270.833 C 322.454 270.833,320.833 270.293,320.833 268.750 C 320.833 267.052,318.519 266.667,308.333 266.667 C 298.148 266.667,295.833 266.281,295.833 264.583 C 295.833 262.886,293.519 262.500,283.333 262.500 C 273.148 262.500,270.833 262.114,270.833 260.417 C 270.833 258.719,268.519 258.333,258.333 258.333 L 245.833 258.333 245.833 254.167 C 245.833 251.389,246.528 250.000,247.917 250.000 C 249.306 250.000,250.000 248.611,250.000 245.833 C 250.000 243.056,250.694 241.667,252.083 241.667 C 253.472 241.667,254.167 240.278,254.167 237.500 C 254.167 234.722,254.861 233.333,256.250 233.333 C 257.639 233.333,258.333 231.944,258.333 229.167 C 258.333 226.389,259.028 225.000,260.417 225.000 C 261.806 225.000,262.500 223.611,262.500 220.833 C 262.500 218.056,263.194 216.667,264.583 216.667 C 266.127 216.667,266.667 215.046,266.667 210.417 C 266.667 205.787,267.207 204.167,268.750 204.167 C 269.896 204.167,270.833 205.104,270.833 206.250 M358.333 212.500 C 358.333 216.512,358.102 216.667,352.083 216.667 C 346.065 216.667,345.833 216.512,345.833 212.500 C 345.833 208.488,346.065 208.333,352.083 208.333 C 358.102 208.333,358.333 208.488,358.333 212.500 M37.500 235.417 C 37.500 237.083,39.583 237.500,47.917 237.500 C 56.250 237.500,58.333 237.917,58.333 239.583 C 58.333 241.281,60.648 241.667,70.833 241.667 C 81.019 241.667,83.333 242.052,83.333 243.750 C 83.333 245.417,85.417 245.833,93.750 245.833 C 102.083 245.833,104.167 246.250,104.167 247.917 C 104.167 249.614,106.481 250.000,116.667 250.000 C 126.852 250.000,129.167 250.386,129.167 252.083 C 129.167 253.704,131.019 254.167,137.500 254.167 C 143.981 254.167,145.833 254.630,145.833 256.250 C 145.833 257.396,146.771 258.333,147.917 258.333 C 149.614 258.333,150.000 260.648,150.000 270.833 C 150.000 281.019,150.386 283.333,152.083 283.333 C 153.781 283.333,154.167 285.648,154.167 295.833 C 154.167 306.019,154.552 308.333,156.250 308.333 C 157.917 308.333,158.333 310.417,158.333 318.750 C 158.333 327.083,158.750 329.167,160.417 329.167 C 162.114 329.167,162.500 331.481,162.500 341.667 C 162.500 351.852,162.886 354.167,164.583 354.167 C 166.250 354.167,166.667 356.250,166.667 364.583 C 166.667 372.917,166.250 375.000,164.583 375.000 C 163.438 375.000,162.500 374.062,162.500 372.917 C 162.500 371.296,160.648 370.833,154.167 370.833 C 147.685 370.833,145.833 370.370,145.833 368.750 C 145.833 367.207,144.213 366.667,139.583 366.667 C 134.954 366.667,133.333 366.127,133.333 364.583 C 133.333 363.194,131.944 362.500,129.167 362.500 C 126.389 362.500,125.000 361.806,125.000 360.417 C 125.000 359.028,123.611 358.333,120.833 358.333 C 118.056 358.333,116.667 357.639,116.667 356.250 C 116.667 354.861,115.278 354.167,112.500 354.167 C 109.722 354.167,108.333 353.472,108.333 352.083 C 108.333 350.938,107.396 350.000,106.250 350.000 C 105.104 350.000,104.167 349.063,104.167 347.917 C 104.167 346.528,102.778 345.833,100.000 345.833 C 97.222 345.833,95.833 345.139,95.833 343.750 C 95.833 342.604,94.896 341.667,93.750 341.667 C 92.604 341.667,91.667 340.729,91.667 339.583 C 91.667 338.194,90.278 337.500,87.500 337.500 C 84.722 337.500,83.333 336.806,83.333 335.417 C 83.333 334.271,82.396 333.333,81.250 333.333 C 80.104 333.333,79.167 332.396,79.167 331.250 C 79.167 330.104,78.229 329.167,77.083 329.167 C 75.938 329.167,75.000 328.229,75.000 327.083 C 75.000 325.938,74.063 325.000,72.917 325.000 C 71.771 325.000,70.833 324.063,70.833 322.917 C 70.833 321.771,69.896 320.833,68.750 320.833 C 67.604 320.833,66.667 319.896,66.667 318.750 C 66.667 317.604,65.729 316.667,64.583 316.667 C 63.437 316.667,62.500 315.729,62.500 314.583 C 62.500 313.438,61.563 312.500,60.417 312.500 C 59.028 312.500,58.333 311.111,58.333 308.333 C 58.333 305.556,57.639 304.167,56.250 304.167 C 55.104 304.167,54.167 303.229,54.167 302.083 C 54.167 300.938,53.229 300.000,52.083 300.000 C 50.694 300.000,50.000 298.611,50.000 295.833 C 50.000 293.056,49.306 291.667,47.917 291.667 C 46.528 291.667,45.833 290.278,45.833 287.500 C 45.833 284.722,45.139 283.333,43.750 283.333 C 42.361 283.333,41.667 281.944,41.667 279.167 C 41.667 276.389,40.972 275.000,39.583 275.000 C 38.194 275.000,37.500 273.611,37.500 270.833 C 37.500 268.056,36.806 266.667,35.417 266.667 C 33.873 266.667,33.333 265.046,33.333 260.417 C 33.333 255.787,32.793 254.167,31.250 254.167 C 29.707 254.167,29.167 252.546,29.167 247.917 C 29.167 243.287,28.627 241.667,27.083 241.667 C 25.694 241.667,25.000 240.278,25.000 237.500 C 25.000 233.488,25.231 233.333,31.250 233.333 C 35.880 233.333,37.500 233.873,37.500 235.417 M37.500 247.917 C 37.500 249.306,38.889 250.000,41.667 250.000 L 45.833 250.000 45.833 262.500 C 45.833 272.685,46.219 275.000,47.917 275.000 C 49.306 275.000,50.000 276.389,50.000 279.167 C 50.000 281.944,50.694 283.333,52.083 283.333 C 53.472 283.333,54.167 281.944,54.167 279.167 C 54.167 276.389,53.472 275.000,52.083 275.000 C 50.463 275.000,50.000 273.148,50.000 266.667 L 50.000 258.333 56.250 258.333 C 62.269 258.333,62.500 258.488,62.500 262.500 C 62.500 265.278,63.194 266.667,64.583 266.667 C 65.972 266.667,66.667 265.278,66.667 262.500 C 66.667 259.722,65.972 258.333,64.583 258.333 C 63.437 258.333,62.500 257.396,62.500 256.250 C 62.500 254.861,61.111 254.167,58.333 254.167 C 55.556 254.167,54.167 253.472,54.167 252.083 C 54.167 250.694,52.778 250.000,50.000 250.000 C 47.222 250.000,45.833 249.306,45.833 247.917 C 45.833 246.528,44.444 245.833,41.667 245.833 C 38.889 245.833,37.500 246.528,37.500 247.917 M175.000 260.417 C 175.000 262.083,177.083 262.500,185.417 262.500 C 193.750 262.500,195.833 262.917,195.833 264.583 C 195.833 266.250,197.917 266.667,206.250 266.667 L 216.667 266.667 216.667 270.833 C 216.667 273.611,215.972 275.000,214.583 275.000 C 213.194 275.000,212.500 276.389,212.500 279.167 C 212.500 281.944,211.806 283.333,210.417 283.333 C 209.028 283.333,208.333 284.722,208.333 287.500 C 208.333 290.278,207.639 291.667,206.250 291.667 C 204.861 291.667,204.167 293.056,204.167 295.833 C 204.167 298.611,203.472 300.000,202.083 300.000 C 200.694 300.000,200.000 301.389,200.000 304.167 C 200.000 306.944,199.306 308.333,197.917 308.333 C 196.528 308.333,195.833 309.722,195.833 312.500 C 195.833 315.278,195.139 316.667,193.750 316.667 C 192.361 316.667,191.667 318.056,191.667 320.833 C 191.667 323.611,190.972 325.000,189.583 325.000 C 188.194 325.000,187.500 326.389,187.500 329.167 C 187.500 331.944,186.806 333.333,185.417 333.333 C 183.750 333.333,183.333 335.417,183.333 343.750 C 183.333 352.083,182.917 354.167,181.250 354.167 C 179.552 354.167,179.167 351.852,179.167 341.667 C 179.167 331.481,178.781 329.167,177.083 329.167 C 175.386 329.167,175.000 326.852,175.000 316.667 C 175.000 306.481,174.614 304.167,172.917 304.167 C 171.250 304.167,170.833 302.083,170.833 293.750 C 170.833 285.417,170.417 283.333,168.750 283.333 C 167.052 283.333,166.667 281.019,166.667 270.833 L 166.667 258.333 170.833 258.333 C 173.611 258.333,175.000 259.028,175.000 260.417 M241.667 272.917 C 241.667 274.614,243.981 275.000,254.167 275.000 C 264.352 275.000,266.667 275.386,266.667 277.083 C 266.667 278.750,268.750 279.167,277.083 279.167 C 285.417 279.167,287.500 279.583,287.500 281.250 C 287.500 282.917,289.583 283.333,297.917 283.333 C 306.250 283.333,308.333 283.750,308.333 285.417 C 308.333 287.114,310.648 287.500,320.833 287.500 C 331.019 287.500,333.333 287.886,333.333 289.583 C 333.333 291.204,335.185 291.667,341.667 291.667 L 350.000 291.667 350.000 295.833 C 350.000 298.611,349.306 300.000,347.917 300.000 C 346.771 300.000,345.833 300.938,345.833 302.083 C 345.833 303.229,344.896 304.167,343.750 304.167 C 342.604 304.167,341.667 305.104,341.667 306.250 C 341.667 307.396,340.729 308.333,339.583 308.333 C 338.194 308.333,337.500 309.722,337.500 312.500 C 337.500 315.278,336.806 316.667,335.417 316.667 C 334.271 316.667,333.333 317.604,333.333 318.750 C 333.333 319.896,332.396 320.833,331.250 320.833 C 330.104 320.833,329.167 321.771,329.167 322.917 C 329.167 324.063,328.229 325.000,327.083 325.000 C 325.938 325.000,325.000 325.938,325.000 327.083 C 325.000 328.229,324.063 329.167,322.917 329.167 C 321.771 329.167,320.833 330.104,320.833 331.250 C 320.833 332.396,319.896 333.333,318.750 333.333 C 317.604 333.333,316.667 334.271,316.667 335.417 C 316.667 336.806,315.278 337.500,312.500 337.500 C 309.722 337.500,308.333 338.194,308.333 339.583 C 308.333 340.729,307.396 341.667,306.250 341.667 C 305.104 341.667,304.167 342.604,304.167 343.750 C 304.167 344.896,303.229 345.833,302.083 345.833 C 300.938 345.833,300.000 346.771,300.000 347.917 C 300.000 349.306,298.611 350.000,295.833 350.000 C 293.056 350.000,291.667 350.694,291.667 352.083 C 291.667 353.472,290.278 354.167,287.500 354.167 C 284.722 354.167,283.333 354.861,283.333 356.250 C 283.333 357.639,281.944 358.333,279.167 358.333 C 276.389 358.333,275.000 359.028,275.000 360.417 C 275.000 361.806,273.611 362.500,270.833 362.500 C 268.056 362.500,266.667 363.194,266.667 364.583 C 266.667 366.127,265.046 366.667,260.417 366.667 C 255.787 366.667,254.167 367.207,254.167 368.750 C 254.167 370.370,252.315 370.833,245.833 370.833 C 239.352 370.833,237.500 371.296,237.500 372.917 C 237.500 374.691,233.796 375.000,212.500 375.000 L 187.500 375.000 187.500 370.833 C 187.500 368.056,188.194 366.667,189.583 366.667 C 190.972 366.667,191.667 365.278,191.667 362.500 C 191.667 359.722,192.361 358.333,193.750 358.333 C 195.139 358.333,195.833 356.944,195.833 354.167 C 195.833 351.389,196.528 350.000,197.917 350.000 C 199.306 350.000,200.000 348.611,200.000 345.833 C 200.000 343.056,200.694 341.667,202.083 341.667 C 203.472 341.667,204.167 340.278,204.167 337.500 C 204.167 334.722,204.861 333.333,206.250 333.333 C 207.639 333.333,208.333 331.944,208.333 329.167 C 208.333 326.389,209.028 325.000,210.417 325.000 C 211.806 325.000,212.500 323.611,212.500 320.833 C 212.500 318.056,213.194 316.667,214.583 316.667 C 215.972 316.667,216.667 315.278,216.667 312.500 C 216.667 309.722,217.361 308.333,218.750 308.333 C 220.139 308.333,220.833 306.944,220.833 304.167 C 220.833 301.389,221.528 300.000,222.917 300.000 C 224.306 300.000,225.000 298.611,225.000 295.833 C 225.000 293.056,225.694 291.667,227.083 291.667 C 228.472 291.667,229.167 290.278,229.167 287.500 C 229.167 284.722,229.861 283.333,231.250 283.333 C 232.639 283.333,233.333 281.944,233.333 279.167 C 233.333 276.389,234.028 275.000,235.417 275.000 C 236.562 275.000,237.500 274.063,237.500 272.917 C 237.500 271.771,238.438 270.833,239.583 270.833 C 240.729 270.833,241.667 271.771,241.667 272.917 M75.000 277.083 C 75.000 278.472,73.611 279.167,70.833 279.167 C 67.130 279.167,66.667 279.630,66.667 283.333 C 66.667 286.111,65.972 287.500,64.583 287.500 C 63.194 287.500,62.500 288.889,62.500 291.667 C 62.500 294.444,63.194 295.833,64.583 295.833 C 65.729 295.833,66.667 296.771,66.667 297.917 C 66.667 299.460,68.287 300.000,72.917 300.000 C 77.546 300.000,79.167 299.460,79.167 297.917 C 79.167 296.771,80.104 295.833,81.250 295.833 C 82.793 295.833,83.333 297.454,83.333 302.083 C 83.333 308.102,83.488 308.333,87.500 308.333 C 91.512 308.333,91.667 308.565,91.667 314.583 C 91.667 319.213,92.207 320.833,93.750 320.833 C 95.293 320.833,95.833 319.213,95.833 314.583 C 95.833 309.954,95.293 308.333,93.750 308.333 C 92.604 308.333,91.667 307.396,91.667 306.250 C 91.667 305.104,90.729 304.167,89.583 304.167 C 88.194 304.167,87.500 302.778,87.500 300.000 C 87.500 297.222,86.806 295.833,85.417 295.833 C 84.028 295.833,83.333 294.444,83.333 291.667 C 83.333 288.889,84.028 287.500,85.417 287.500 C 86.806 287.500,87.500 286.111,87.500 283.333 C 87.500 280.556,86.806 279.167,85.417 279.167 C 84.271 279.167,83.333 278.229,83.333 277.083 C 83.333 275.694,81.944 275.000,79.167 275.000 C 76.389 275.000,75.000 275.694,75.000 277.083 M83.333 283.333 C 83.333 286.111,82.639 287.500,81.250 287.500 C 79.861 287.500,79.167 288.889,79.167 291.667 C 79.167 295.679,78.935 295.833,72.917 295.833 C 66.898 295.833,66.667 295.679,66.667 291.667 C 66.667 288.889,67.361 287.500,68.750 287.500 C 69.896 287.500,70.833 286.563,70.833 285.417 C 70.833 284.271,71.771 283.333,72.917 283.333 C 74.063 283.333,75.000 282.396,75.000 281.250 C 75.000 279.861,76.389 279.167,79.167 279.167 C 82.870 279.167,83.333 279.630,83.333 283.333 M304.167 302.083 C 304.167 306.713,304.707 308.333,306.250 308.333 C 307.396 308.333,308.333 309.271,308.333 310.417 C 308.333 311.563,309.271 312.500,310.417 312.500 C 311.563 312.500,312.500 313.438,312.500 314.583 C 312.500 315.729,313.438 316.667,314.583 316.667 C 315.729 316.667,316.667 317.604,316.667 318.750 C 316.667 319.896,317.604 320.833,318.750 320.833 C 319.896 320.833,320.833 319.896,320.833 318.750 C 320.833 317.604,319.896 316.667,318.750 316.667 C 317.361 316.667,316.667 315.278,316.667 312.500 C 316.667 308.796,316.204 308.333,312.500 308.333 C 308.796 308.333,308.333 307.870,308.333 304.167 L 308.333 300.000 316.667 300.000 C 323.148 300.000,325.000 300.463,325.000 302.083 C 325.000 303.472,326.389 304.167,329.167 304.167 C 331.944 304.167,333.333 303.472,333.333 302.083 C 333.333 300.694,331.944 300.000,329.167 300.000 C 326.389 300.000,325.000 299.306,325.000 297.917 C 325.000 296.250,322.917 295.833,314.583 295.833 L 304.167 295.833 304.167 302.083 M283.333 310.417 C 283.333 311.563,284.271 312.500,285.417 312.500 C 286.563 312.500,287.500 313.438,287.500 314.583 C 287.500 316.204,285.648 316.667,279.167 316.667 C 272.685 316.667,270.833 317.130,270.833 318.750 C 270.833 320.417,272.917 320.833,281.250 320.833 L 291.667 320.833 291.667 329.167 C 291.667 335.648,292.130 337.500,293.750 337.500 C 295.370 337.500,295.833 335.648,295.833 329.167 C 295.833 322.685,296.296 320.833,297.917 320.833 C 299.063 320.833,300.000 321.771,300.000 322.917 C 300.000 324.306,301.389 325.000,304.167 325.000 C 306.944 325.000,308.333 325.694,308.333 327.083 C 308.333 328.229,309.271 329.167,310.417 329.167 C 311.563 329.167,312.500 328.229,312.500 327.083 C 312.500 325.938,311.563 325.000,310.417 325.000 C 309.271 325.000,308.333 324.063,308.333 322.917 C 308.333 321.528,306.944 320.833,304.167 320.833 C 301.389 320.833,300.000 320.139,300.000 318.750 C 300.000 317.604,299.063 316.667,297.917 316.667 C 296.771 316.667,295.833 315.729,295.833 314.583 C 295.833 313.194,294.444 312.500,291.667 312.500 C 288.889 312.500,287.500 311.806,287.500 310.417 C 287.500 309.271,286.563 308.333,285.417 308.333 C 284.271 308.333,283.333 309.271,283.333 310.417 M320.833 310.417 C 320.833 311.563,321.771 312.500,322.917 312.500 C 324.063 312.500,325.000 311.563,325.000 310.417 C 325.000 309.271,324.063 308.333,322.917 308.333 C 321.771 308.333,320.833 309.271,320.833 310.417 M104.167 322.917 C 104.167 324.063,103.229 325.000,102.083 325.000 C 100.540 325.000,100.000 326.620,100.000 331.250 C 100.000 335.880,100.540 337.500,102.083 337.500 C 103.472 337.500,104.167 336.111,104.167 333.333 C 104.167 330.556,104.861 329.167,106.250 329.167 C 107.396 329.167,108.333 328.229,108.333 327.083 C 108.333 325.694,109.722 325.000,112.500 325.000 L 116.667 325.000 116.667 333.333 C 116.667 339.815,117.130 341.667,118.750 341.667 C 119.896 341.667,120.833 342.604,120.833 343.750 C 120.833 344.896,121.771 345.833,122.917 345.833 C 124.306 345.833,125.000 344.444,125.000 341.667 C 125.000 337.963,125.463 337.500,129.167 337.500 C 133.179 337.500,133.333 337.731,133.333 343.750 C 133.333 348.380,133.873 350.000,135.417 350.000 C 136.563 350.000,137.500 350.938,137.500 352.083 C 137.500 353.229,138.438 354.167,139.583 354.167 C 140.972 354.167,141.667 352.778,141.667 350.000 C 141.667 346.296,142.130 345.833,145.833 345.833 C 149.846 345.833,150.000 346.065,150.000 352.083 C 150.000 358.102,150.154 358.333,154.167 358.333 C 156.944 358.333,158.333 357.639,158.333 356.250 C 158.333 355.104,157.396 354.167,156.250 354.167 C 154.861 354.167,154.167 352.778,154.167 350.000 C 154.167 347.222,153.472 345.833,152.083 345.833 C 150.938 345.833,150.000 344.896,150.000 343.750 C 150.000 342.361,148.611 341.667,145.833 341.667 C 143.056 341.667,141.667 342.361,141.667 343.750 C 141.667 344.896,140.729 345.833,139.583 345.833 C 138.194 345.833,137.500 344.444,137.500 341.667 C 137.500 338.889,136.806 337.500,135.417 337.500 C 134.271 337.500,133.333 336.563,133.333 335.417 C 133.333 334.028,131.944 333.333,129.167 333.333 C 126.389 333.333,125.000 334.028,125.000 335.417 C 125.000 336.563,124.063 337.500,122.917 337.500 C 121.373 337.500,120.833 335.880,120.833 331.250 C 120.833 326.620,120.293 325.000,118.750 325.000 C 117.604 325.000,116.667 324.063,116.667 322.917 C 116.667 321.373,115.046 320.833,110.417 320.833 C 105.787 320.833,104.167 321.373,104.167 322.917 M250.000 339.583 C 250.000 351.620,250.364 354.167,252.083 354.167 C 253.627 354.167,254.167 352.546,254.167 347.917 C 254.167 341.898,254.321 341.667,258.333 341.667 C 261.111 341.667,262.500 340.972,262.500 339.583 C 262.500 338.040,264.120 337.500,268.750 337.500 C 273.380 337.500,275.000 338.040,275.000 339.583 C 275.000 340.729,275.938 341.667,277.083 341.667 C 278.472 341.667,279.167 340.278,279.167 337.500 C 279.167 333.796,278.704 333.333,275.000 333.333 C 272.222 333.333,270.833 332.639,270.833 331.250 C 270.833 329.861,269.444 329.167,266.667 329.167 C 263.889 329.167,262.500 328.472,262.500 327.083 C 262.500 325.540,260.880 325.000,256.250 325.000 L 250.000 325.000 250.000 339.583 M262.500 331.250 C 262.500 332.396,261.563 333.333,260.417 333.333 C 259.271 333.333,258.333 334.271,258.333 335.417 C 258.333 336.563,257.396 337.500,256.250 337.500 C 254.861 337.500,254.167 336.111,254.167 333.333 C 254.167 329.630,254.630 329.167,258.333 329.167 C 261.111 329.167,262.500 329.861,262.500 331.250 M212.500 343.750 C 212.500 345.370,214.352 345.833,220.833 345.833 L 229.167 345.833 229.167 350.000 C 229.167 352.778,228.472 354.167,227.083 354.167 C 225.938 354.167,225.000 355.104,225.000 356.250 C 225.000 357.396,224.062 358.333,222.917 358.333 C 221.771 358.333,220.833 359.271,220.833 360.417 C 220.833 361.562,219.896 362.500,218.750 362.500 C 217.604 362.500,216.667 363.438,216.667 364.583 C 216.667 366.281,218.981 366.667,229.167 366.667 C 239.352 366.667,241.667 366.281,241.667 364.583 C 241.667 362.963,239.815 362.500,233.333 362.500 C 226.852 362.500,225.000 362.037,225.000 360.417 C 225.000 359.271,225.938 358.333,227.083 358.333 C 228.229 358.333,229.167 357.396,229.167 356.250 C 229.167 355.104,230.104 354.167,231.250 354.167 C 232.396 354.167,233.333 353.229,233.333 352.083 C 233.333 350.938,234.271 350.000,235.417 350.000 C 236.806 350.000,237.500 348.611,237.500 345.833 L 237.500 341.667 225.000 341.667 C 214.815 341.667,212.500 342.052,212.500 343.750 " stroke="none" fill="#000000" fill-rule="evenodd"></path></g></svg>
