<?xml version="1.0" encoding="UTF-8" standalone="no"?>
<!-- Created with Inkscape (http://www.inkscape.org/) -->

<svg
   width="210mm"
   height="297mm"
   viewBox="0 0 210 297"
   version="1.1"
   id="svg17"
   inkscape:version="1.1.1 (3bf5ae0d25, 2021-09-20)"
   sodipodi:docname="bg-spookycomp.svg"
   xmlns:inkscape="http://www.inkscape.org/namespaces/inkscape"
   xmlns:sodipodi="http://sodipodi.sourceforge.net/DTD/sodipodi-0.dtd"
   xmlns="http://www.w3.org/2000/svg"
   xmlns:svg="http://www.w3.org/2000/svg">
  <sodipodi:namedview
     id="namedview19"
     pagecolor="#505050"
     bordercolor="#eeeeee"
     borderopacity="1"
     inkscape:pageshadow="0"
     inkscape:pageopacity="0"
     inkscape:pagecheckerboard="0"
     inkscape:document-units="mm"
     showgrid="false"
     inkscape:zoom="0.64052329"
     inkscape:cx="656.49448"
     inkscape:cy="528.47415"
     inkscape:window-width="1680"
     inkscape:window-height="1027"
     inkscape:window-x="-8"
     inkscape:window-y="-8"
     inkscape:window-maximized="1"
     inkscape:current-layer="layer1" />
  <defs
     id="defs14">
    <inkscape:path-effect
       effect="powerstroke"
       id="path-effect1922"
       is_visible="true"
       lpeversion="1"
       offset_points="0,4.99214"
       not_jump="false"
       sort_points="true"
       interpolator_type="CubicBezierJohan"
       interpolator_beta="0.2"
       start_linecap_type="zerowidth"
       linejoin_type="extrp_arc"
       miter_limit="4"
       scale_width="1"
       end_linecap_type="zerowidth" />
    <inkscape:path-effect
       effect="powerstroke"
       id="path-effect1918"
       is_visible="true"
       lpeversion="1"
       offset_points="0,4.99214"
       not_jump="false"
       sort_points="true"
       interpolator_type="CubicBezierJohan"
       interpolator_beta="0.2"
       start_linecap_type="zerowidth"
       linejoin_type="extrp_arc"
       miter_limit="4"
       scale_width="1"
       end_linecap_type="zerowidth" />
    <inkscape:path-effect
       effect="powerstroke"
       id="path-effect1912"
       is_visible="true"
       lpeversion="1"
       offset_points="0,4.99214"
       not_jump="false"
       sort_points="true"
       interpolator_type="CubicBezierJohan"
       interpolator_beta="0.2"
       start_linecap_type="zerowidth"
       linejoin_type="extrp_arc"
       miter_limit="4"
       scale_width="1"
       end_linecap_type="zerowidth" />
    <inkscape:path-effect
       effect="powerstroke"
       id="path-effect1908"
       is_visible="true"
       lpeversion="1"
       offset_points="0,4.99214"
       not_jump="false"
       sort_points="true"
       interpolator_type="CubicBezierJohan"
       interpolator_beta="0.2"
       start_linecap_type="zerowidth"
       linejoin_type="extrp_arc"
       miter_limit="4"
       scale_width="1"
       end_linecap_type="zerowidth" />
    <inkscape:path-effect
       effect="powerstroke"
       id="path-effect1904"
       is_visible="true"
       lpeversion="1"
       offset_points="0,4.99214"
       not_jump="false"
       sort_points="true"
       interpolator_type="CubicBezierJohan"
       interpolator_beta="0.2"
       start_linecap_type="zerowidth"
       linejoin_type="extrp_arc"
       miter_limit="4"
       scale_width="1"
       end_linecap_type="zerowidth" />
    <inkscape:path-effect
       effect="powerstroke"
       id="path-effect1900"
       is_visible="true"
       lpeversion="1"
       offset_points="0,4.99214"
       not_jump="false"
       sort_points="true"
       interpolator_type="CubicBezierJohan"
       interpolator_beta="0.2"
       start_linecap_type="zerowidth"
       linejoin_type="extrp_arc"
       miter_limit="4"
       scale_width="1"
       end_linecap_type="zerowidth" />
    <inkscape:path-effect
       effect="powerstroke"
       id="path-effect1896"
       is_visible="true"
       lpeversion="1"
       offset_points="0,4.99214"
       not_jump="false"
       sort_points="true"
       interpolator_type="CubicBezierJohan"
       interpolator_beta="0.2"
       start_linecap_type="zerowidth"
       linejoin_type="extrp_arc"
       miter_limit="4"
       scale_width="1"
       end_linecap_type="zerowidth" />
    <inkscape:path-effect
       effect="powerstroke"
       id="path-effect1892"
       is_visible="true"
       lpeversion="1"
       offset_points="0,4.99214"
       not_jump="false"
       sort_points="true"
       interpolator_type="CubicBezierJohan"
       interpolator_beta="0.2"
       start_linecap_type="zerowidth"
       linejoin_type="extrp_arc"
       miter_limit="4"
       scale_width="1"
       end_linecap_type="zerowidth" />
    <inkscape:path-effect
       effect="powerstroke"
       id="path-effect1888"
       is_visible="true"
       lpeversion="1"
       offset_points="0,4.99214"
       not_jump="false"
       sort_points="true"
       interpolator_type="CubicBezierJohan"
       interpolator_beta="0.2"
       start_linecap_type="zerowidth"
       linejoin_type="extrp_arc"
       miter_limit="4"
       scale_width="1"
       end_linecap_type="zerowidth" />
    <inkscape:path-effect
       effect="powerstroke"
       id="path-effect1884"
       is_visible="true"
       lpeversion="1"
       offset_points="0,4.99214"
       not_jump="false"
       sort_points="true"
       interpolator_type="CubicBezierJohan"
       interpolator_beta="0.2"
       start_linecap_type="zerowidth"
       linejoin_type="extrp_arc"
       miter_limit="4"
       scale_width="1"
       end_linecap_type="zerowidth" />
    <inkscape:path-effect
       effect="powerstroke"
       id="path-effect1880"
       is_visible="true"
       lpeversion="1"
       offset_points="0,4.99214"
       not_jump="false"
       sort_points="true"
       interpolator_type="CubicBezierJohan"
       interpolator_beta="0.2"
       start_linecap_type="zerowidth"
       linejoin_type="extrp_arc"
       miter_limit="4"
       scale_width="1"
       end_linecap_type="zerowidth" />
    <inkscape:path-effect
       effect="powerstroke"
       id="path-effect1763"
       is_visible="true"
       lpeversion="1"
       offset_points="0,5.5691234"
       not_jump="false"
       sort_points="true"
       interpolator_type="CubicBezierJohan"
       interpolator_beta="0.2"
       start_linecap_type="zerowidth"
       linejoin_type="extrp_arc"
       miter_limit="4"
       scale_width="1"
       end_linecap_type="zerowidth" />
    <inkscape:path-effect
       effect="spiro"
       id="path-effect1761"
       is_visible="true"
       lpeversion="1" />
    <inkscape:path-effect
       effect="powerstroke"
       id="path-effect1757"
       is_visible="true"
       lpeversion="1"
       offset_points="0,4.99214"
       not_jump="false"
       sort_points="true"
       interpolator_type="CubicBezierJohan"
       interpolator_beta="0.2"
       start_linecap_type="zerowidth"
       linejoin_type="extrp_arc"
       miter_limit="4"
       scale_width="1"
       end_linecap_type="zerowidth" />
    <inkscape:path-effect
       effect="powerstroke"
       id="path-effect1751"
       is_visible="true"
       lpeversion="1"
       offset_points="0,4.99214"
       not_jump="false"
       sort_points="true"
       interpolator_type="CubicBezierJohan"
       interpolator_beta="0.2"
       start_linecap_type="zerowidth"
       linejoin_type="extrp_arc"
       miter_limit="4"
       scale_width="1"
       end_linecap_type="zerowidth" />
    <inkscape:path-effect
       effect="powerstroke"
       id="path-effect563"
       is_visible="true"
       lpeversion="1"
       offset_points="0,4.99214"
       not_jump="false"
       sort_points="true"
       interpolator_type="CubicBezierJohan"
       interpolator_beta="0.2"
       start_linecap_type="zerowidth"
       linejoin_type="extrp_arc"
       miter_limit="4"
       scale_width="1"
       end_linecap_type="zerowidth" />
    <inkscape:path-effect
       effect="spiro"
       id="path-effect561"
       is_visible="true"
       lpeversion="1" />
    <inkscape:path-effect
       effect="powerstroke"
       id="path-effect130"
       is_visible="true"
       lpeversion="1"
       offset_points="0,4.99214"
       not_jump="false"
       sort_points="true"
       interpolator_type="CubicBezierJohan"
       interpolator_beta="0.2"
       start_linecap_type="zerowidth"
       linejoin_type="extrp_arc"
       miter_limit="4"
       scale_width="1"
       end_linecap_type="zerowidth" />
    <inkscape:path-effect
       effect="powerstroke"
       id="path-effect126"
       is_visible="true"
       lpeversion="1"
       offset_points="0,4.99214"
       not_jump="false"
       sort_points="true"
       interpolator_type="CubicBezierJohan"
       interpolator_beta="0.2"
       start_linecap_type="zerowidth"
       linejoin_type="extrp_arc"
       miter_limit="4"
       scale_width="1"
       end_linecap_type="zerowidth" />
  </defs>
  <g
     inkscape:label="Layer 1"
     inkscape:groupmode="layer"
     id="layer1">
    <rect
       id="rect154"
       width="3"
       height="137.14046"
       x="102.10482"
       y="79.604454"
       style="stroke-width:0.178258" />
    <rect
       id="rect154-2"
       width="3"
       height="137.14046"
       x="145.10205"
       y="36.723087"
       style="stroke-width:0.178258"
       transform="matrix(0,1,1,0,0,0)" />
    <path
       style="fill:#000000;fill-rule:nonzero;stroke:none;stroke-width:0.264583px;stroke-linecap:butt;stroke-linejoin:miter;stroke-opacity:1"
       d="m 36.723085,145.10237 c 0,0 4.987117,0.2239 4.987117,0.2239 0.300118,-6.6849 1.730643,-14.5799 5.277526,-22.81733 2.867504,-6.65962 7.114921,-13.49712 13.016672,-19.54839 5.224311,-5.356666 11.731407,-10.067989 19.308093,-13.542282 6.97178,-3.196913 14.784137,-5.308406 22.979127,-5.811643 8.24259,-0.499 16.80948,0.649022 25.06489,3.495893 7.94206,2.738819 15.51771,7.028172 22.01161,12.780171 6.34679,5.621701 11.61373,12.603901 15.42154,20.432921 3.76329,7.73751 6.06614,16.23388 6.58031,24.89719 0.52517,8.91092 -0.85173,17.91943 -3.88779,26.34203 -3.07034,8.51768 -7.80955,16.36198 -13.9045,22.89384 -6.23852,6.68572 -13.82833,11.92776 -22.00751,15.53139 -8.49851,3.74432 -17.55572,5.69123 -26.46245,5.77934 -9.366947,0.0931 -18.471828,-1.86736 -26.615794,-5.25394 -8.853636,-3.68168 -16.507202,-9.00202 -22.592028,-15.25109 -6.874223,-7.05977 -11.65295,-15.18052 -14.685427,-23.08877 -3.738308,-9.74896 -4.835824,-19.17642 -4.491386,-27.06323 -0.344161,7.88048 0.651619,17.26919 4.281544,27.14203 2.929572,7.96799 7.589765,16.22578 14.389894,23.49234 6.021907,6.43495 13.659277,12.00387 22.585104,15.96109 8.207593,3.63879 17.462392,5.884 27.122323,6.03277 9.177,0.14093 18.59319,-1.61989 27.52011,-5.2724 8.58728,-3.51354 16.68109,-8.76935 23.43999,-15.62489 6.61021,-6.70474 11.85328,-14.84869 15.363,-23.79268 3.46859,-8.83914 5.22798,-18.42405 4.93218,-28.04869 -0.28403,-9.35938 -2.50148,-18.61389 -6.34083,-27.12228 -3.88289,-8.60485 -9.4086,-16.41368 -16.23918,-22.818104 -6.98566,-6.549834 -15.22822,-11.531792 -23.94415,-14.807737 -9.05708,-3.404166 -18.59294,-4.962432 -27.91504,-4.641543 -9.264368,0.311728 -18.145211,2.45759 -26.11948,5.87195 -8.665655,3.710393 -16.218184,8.890569 -22.365921,14.9262 -6.942635,6.816034 -11.969212,14.578794 -15.377784,22.176114 -4.203157,9.36837 -5.969196,18.51307 -6.318877,26.30193 0,0 4.987117,0.2239 4.987117,0.2239 z"
       id="path559"
       inkscape:path-effect="#path-effect561;#path-effect563"
       inkscape:original-d="M 36.723085,145.10237 C 13.928908,121.22123 80.311166,101.43733 102.10482,79.604451 123.89852,57.771577 149.94429,123.27003 173.8636,145.10237 197.78291,166.93472 128.02471,192.86439 105.10483,216.745 82.184966,240.62561 59.517258,168.98351 36.723085,145.10237" />
    <path
       sodipodi:type="spiral"
       style="fill:none;fill-rule:evenodd;stroke:#000000"
       id="path588"
       sodipodi:cx="352.83652"
       sodipodi:cy="484.75989"
       sodipodi:expansion="2"
       sodipodi:revolution="2"
       sodipodi:radius="260.29077"
       sodipodi:argument="-12.56"
       sodipodi:t0="0"
       d="m 352.83652,484.75989 c 1.80546,0.0115 0.37587,3.56205 -0.0259,4.06696 -4.60433,5.78615 -13.30446,0.50913 -16.24194,-4.17059 -8.85183,-14.10194 3.27598,-30.98529 16.50102,-36.49902 27.92914,-11.6441 56.6858,10.82962 64.8382,37.01717 14.35477,46.11111 -22.14063,90.45747 -65.71906,101.2595 -68.68363,17.02499 -132.31907,-37.2052 -145.7629,-102.6067 -19.6647,-95.66475 56.02244,-182.27918 147.68006,-198.3484 127.06353,-22.27652 240.34225,78.59247 259.01602,200.93917"
       transform="matrix(0.26458333,0,0,0.26458333,11.641668,16.404171)" />
    <path
       sodipodi:type="spiral"
       style="fill:none;fill-rule:evenodd;stroke:#000000"
       id="path592"
       sodipodi:cx="357.52017"
       sodipodi:cy="500.37213"
       sodipodi:expansion="2"
       sodipodi:revolution="2"
       sodipodi:radius="262.7373"
       sodipodi:argument="-15.698009"
       sodipodi:t0="0"
       d="m 357.52017,500.37213 c -1.82238,-0.0181 -0.36651,-3.59687 0.0409,-4.10507 4.66851,-5.82383 13.43126,-0.46577 16.3794,4.26854 8.88396,14.26641 -3.41885,31.26447 -16.78806,36.78213 -28.23361,11.65242 -57.17905,-11.13643 -65.31328,-37.59946 -14.32276,-46.59615 22.67589,-91.227 66.70273,-101.97281 69.39035,-16.93639 133.42729,38.03341 146.76075,104.09785 19.50327,96.63446 -57.20817,183.78858 -149.78485,199.6771 C 227.18013,723.54642 113.20237,621.32013 94.795886,497.7567"
       transform="matrix(0.26458333,0,0,0.26458333,11.641668,16.404171)" />
    <path
       sodipodi:type="spiral"
       style="fill:none;fill-rule:evenodd;stroke:#000000"
       id="path606"
       sodipodi:cx="341.12109"
       sodipodi:cy="498.98618"
       sodipodi:expansion="2"
       sodipodi:revolution="2"
       sodipodi:radius="260.12018"
       sodipodi:argument="-14.134142"
       sodipodi:t0="0"
       d="m 341.12109,498.98618 c 0.005,-1.80431 3.55845,-0.38754 4.06436,0.0123 5.79772,4.58194 0.55327,13.29396 -4.11354,16.24514 -14.06302,8.89313 -30.97576,-3.17022 -36.53005,-16.36809 -11.72977,-27.87175 10.63296,-56.68453 36.77595,-64.91909 46.03264,-14.49943 90.47169,21.8236 101.41226,65.33712 17.24335,68.58131 -36.73826,132.35598 -102.05159,146.00956 C 245.1427,665.27461 158.33251,589.92705 141.96749,498.38373 119.28093,371.47866 219.70455,257.93761 341.90796,238.86719"
       transform="matrix(0.26458333,0,0,0.26458333,11.641668,16.404171)" />
    <path
       sodipodi:type="spiral"
       style="fill:none;fill-rule:evenodd;stroke:#000000"
       id="path608"
       sodipodi:cx="352.83652"
       sodipodi:cy="484.75989"
       sodipodi:expansion="2"
       sodipodi:revolution="2"
       sodipodi:radius="272.43375"
       sodipodi:argument="-10.997079"
       sodipodi:t0="0"
       d="m 352.83652,484.75989 c 0.003,1.88973 -3.72502,0.42275 -4.25678,0.006 -6.09384,-4.77128 -0.64252,-13.9205 4.23116,-17.03349 14.68639,-9.38073 32.4568,3.17331 38.33657,16.96944 12.41713,29.1352 -10.86727,59.4177 -38.20848,68.16601 -48.14245,15.40403 -94.857,-22.42725 -106.52178,-67.94824 -18.38478,-71.74528 37.84908,-138.79432 106.18874,-153.40393 99.96248,-21.36993 191.23861,57.1318 208.81242,152.92997 24.36229,132.80352 -80.27546,252.19456 -208.17195,272.74728"
       transform="matrix(0.26458333,0,0,0.26458333,11.641668,16.404171)" />
    <circle
       id="path794"
       style="fill:#000000;stroke:#000000;stroke-width:0.264583"
       cx="18.870451"
       cy="108.5196"
       r="0.081887342" />
    <circle
       id="path796"
       style="fill:#000000;stroke:#000000;stroke-width:0.264583"
       cx="18.870451"
       cy="108.5196"
       r="0.081887342" />
    <path
       d="m 126.98522,143.28195 c -3.27046,-6.48597 -9.0726,-11.20854 -15.58618,-12.68617 -1.04833,-0.23781 -2.50165,-0.37755 -3.97586,-0.38226 l -2.32355,-0.007 v -3.97007 -3.97006 l 1.08432,-0.30595 c 3.28224,-0.92611 8.80859,-1.13649 12.18982,-0.46404 6.30139,1.25321 11.70179,4.22244 16.57174,9.11142 3.0558,3.06774 4.90763,5.56042 6.70478,9.02505 1.03763,2.00039 2.2783,4.85524 2.2783,5.24248 0,0.0542 -3.62035,0.0985 -8.04522,0.0985 h -8.04523 z"
       id="path1090"
       style="stroke-width:0.206537" />
    <path
       d="m 105.09963,194.22753 v -7.70599 l 0.98105,-0.35654 c 5.90087,-2.14445 10.51031,-5.13325 14.76587,-9.57427 5.53017,-5.77118 8.5582,-12.57972 8.95199,-20.12862 0.10948,-2.09879 -0.0849,-4.29079 -0.66636,-7.51281 l -0.12112,-0.67125 h 7.95799 7.958 l 0.20854,0.98105 c 0.88261,4.15212 0.98738,10.15706 0.25133,14.40595 -3.1837,18.378 -18.54921,33.66783 -37.96374,37.77671 l -2.32355,0.49176 z"
       id="path1129"
       style="stroke-width:0.206537" />
    <path
       d="M 91.364899,202.36544 C 69.61843,200.30668 49.668833,184.56715 40.872983,162.52909 c -1.506908,-3.77556 -3.173098,-9.57853 -3.617444,-12.59874 -0.07521,-0.51118 -0.183132,-1.09348 -0.239836,-1.294 -0.09709,-0.34334 0.248558,-0.36139 5.931042,-0.30981 l 6.03414,0.0548 0.466937,2.06537 c 3.230189,14.28786 13.112493,27.0456 25.812694,33.32338 5.932442,2.93243 10.722001,4.12951 17.240337,4.30896 3.559582,0.098 7.107994,-0.17264 9.035987,-0.68919 l 0.46472,-0.1245 v 7.53207 7.53207 l -1.70394,0.13265 c -2.219964,0.17281 -6.5851,0.12556 -8.932721,-0.0967 z"
       id="path1168"
       style="stroke-width:0.206537" />
    <path
       d="m 66.173147,142.75319 c -0.997159,-6.22099 -0.475025,-12.91654 1.463921,-18.77248 4.753145,-14.35532 17.043908,-25.953793 32.387142,-30.562861 0.90038,-0.270473 1.71363,-0.491768 1.80721,-0.491768 0.0936,0 0.17014,2.637184 0.17014,5.86041 v 5.860429 l -1.8938,0.66131 c -2.369816,0.82754 -5.960876,2.61826 -8.123249,4.05074 -8.919232,5.9086 -14.762782,14.73955 -16.028456,24.22271 -0.295764,2.21604 -0.114628,7.66368 0.316974,9.53295 0.170486,0.73837 0.31324,1.45867 0.31723,1.60066 0.0056,0.19968 -1.133414,0.25817 -5.026986,0.25817 h -5.03424 z"
       id="path1207"
       style="stroke-width:0.206537" />
    <path
       d="m 94.876025,172.0129 c -3.193883,-0.38298 -6.95121,-1.53354 -9.947703,-3.04616 -3.752951,-1.89449 -8.588597,-5.91972 -11.331567,-9.43248 -2.34225,-2.9996 -4.622316,-7.0641 -5.668441,-10.10471 l -0.396171,-1.1515 h 5.120886 5.120888 l 0.743754,1.49739 c 1.29113,2.59943 2.84229,4.73193 5.091253,6.99937 3.204017,3.23034 6.208752,5.07168 10.279012,6.29912 1.597779,0.48183 2.189943,0.54973 4.963242,0.56911 l 3.149012,0.022 5.3e-4,4.06692 c 5.3e-4,2.2368 -0.0799,4.11674 -0.17847,4.17763 -0.35926,0.22204 -5.338682,0.29609 -6.946378,0.10331 z"
       id="path1246"
       style="stroke-width:0.206537" />
    <path
       d="m 105.09963,167.08284 v -4.1208 l 1.80681,-0.8467 c 4.5027,-2.11002 7.83507,-5.92949 8.93892,-10.24551 0.22401,-0.87586 0.40729,-2.04233 0.40729,-2.59213 v -0.99965 h 3.19739 3.19739 l 0.13591,0.54154 c 0.0748,0.29784 0.0754,1.40276 0.001,2.45536 -0.50991,7.25404 -5.15867,13.97547 -12.34661,17.85137 -1.44501,0.77918 -4.65575,2.07732 -5.1379,2.07732 -0.12306,0 -0.2006,-1.59273 -0.2006,-4.1208 z"
       id="path1285"
       style="stroke-width:0.206537" />
    <path
       d="m 114.93647,143.83701 c -0.71206,-1.36277 -2.77019,-3.34813 -4.175,-4.02739 -1.33121,-0.64368 -3.65904,-0.80428 -4.83536,-0.33362 l -0.82648,0.33069 v -2.34628 -2.34628 l 1.20114,-0.33703 c 1.51303,-0.42453 4.12627,-0.43309 5.71711,-0.0187 2.60244,0.67785 5.46662,2.69793 7.41207,5.22767 0.85072,1.10622 2.1764,3.5148 2.4893,4.52272 l 0.14427,0.46471 -3.26687,-5.3e-4 -3.26687,-5.3e-4 z"
       id="path1324"
       style="stroke-width:0.206537" />
    <path
       d="m 99.729642,158.90229 c -3.892311,-0.83899 -7.705918,-4.00523 -9.686893,-8.04253 -1.324816,-2.70002 -1.34443,-2.58264 0.430451,-2.57638 l 1.511311,0.005 0.399629,0.87245 c 0.53417,1.16618 2.65779,3.2561 3.937643,3.87516 1.334524,0.64551 3.591898,0.79923 4.733287,0.32233 0.43472,-0.18164 0.82552,-0.33025 0.86844,-0.33025 0.0429,0 0.0781,1.39413 0.0781,3.09805 0,3.56443 0.20794,3.31037 -2.271915,2.77584 z"
       id="path1402"
       style="stroke-width:0.206537" />
    <path
       d="m 105.09963,153.44147 c 0,-4.27576 0.0495,-5.16342 0.28771,-5.16342 0.15824,0 0.3412,0.13941 0.40659,0.30981 0.0654,0.17039 0.22469,0.3098 0.354,0.3098 0.12931,0 0.18162,-0.13941 0.11623,-0.3098 -0.10018,-0.26108 0.17013,-0.30981 1.71849,-0.30981 1.72581,0 1.86265,0.0321 2.25368,0.52925 0.65745,0.83581 0.91404,1.89207 0.80118,3.29809 -0.13393,1.6684 -0.90549,3.09586 -2.4425,4.51886 -1.04768,0.96996 -2.72477,1.98064 -3.28659,1.98064 -0.13513,0 -0.20879,-1.82172 -0.20879,-5.16342 z"
       id="path1441"
       style="stroke-width:0.206537" />
    <path
       d="m 100.75989,144.30222 c -1.054579,-1.72892 -0.70644,-4.40733 0.82551,-6.35101 l 0.40697,-0.51634 0.005,3.7693 c 0.004,3.64229 -0.009,3.76929 -0.41152,3.76929 -0.24778,0 -0.58175,-0.27154 -0.82555,-0.67124 z"
       id="path1480"
       style="stroke-width:0.206537" />
    <path
       d="m 88.26762,144.09568 c -0.15404,-1.05799 0.158348,-3.94911 0.62217,-5.75813 0.45044,-1.75681 1.932824,-4.85906 3.130714,-6.55178 1.958669,-2.76776 5.02625,-5.55611 8.018946,-7.28898 2.15262,-1.24645 1.96211,-1.51114 1.96211,2.7261 v 3.71629 l -0.56798,0.21496 c -5.747699,2.17536 -10.171948,7.61842 -10.171948,12.51432 v 1.305 h -1.433105 -1.433103 z"
       id="path1519"
       style="stroke-width:0.206537" />
    <path
       d="m 160.24563,143.78587 c -1.51564,-7.65278 -5.46257,-16.10019 -10.4788,-22.42723 -1.78023,-2.24542 -5.69501,-6.17985 -8.00687,-8.04706 -6.75285,-5.45404 -14.62519,-8.91514 -22.69533,-9.9781 -3.79729,-0.50016 -10.13597,-0.29111 -13.50029,0.44523 l -0.46471,0.10172 v -5.863461 -5.863437 l 2.73663,-0.377465 c 3.939,-0.543314 10.40728,-0.503782 14.30269,0.08741 12.26895,1.862013 22.88438,7.200529 32.28156,16.234483 4.98515,4.79246 10.20152,11.80312 12.03724,16.1777 2.35023,5.60068 4.22731,13.20464 4.65359,18.85135 l 0.13939,1.84645 h -5.38496 -5.38494 z"
       id="path1597"
       style="stroke-width:0.206537" />
    <path
       d="m 116.50215,214.06738 c 22.1136,-7.64458 39.08223,-26.21473 43.60949,-47.72541 1.04027,-4.94274 1.45696,-11.91282 0.99038,-16.56653 l -0.15013,-1.49739 h 5.22306 5.22304 v 1.64105 c 0,4.29954 -0.90775,10.86004 -2.15894,15.60308 -2.59664,9.84335 -6.99351,18.46458 -13.32573,26.12861 -2.11449,2.55921 -6.78651,7.13116 -9.43791,9.23575 -8.38779,6.65794 -18.37421,11.29037 -29.0579,13.47916 -2.91589,0.59739 -3.21983,0.49833 -0.91536,-0.29832 z"
       id="path1636"
       style="stroke-width:0.206537" />
    <path
       d="m 41.899323,143.95972 c 0,-0.55755 0.145259,-2.16079 0.322799,-3.56276 1.686547,-13.31801 7.231973,-25.50748 16.199033,-35.60731 2.081188,-2.3441 5.947534,-5.985995 6.145127,-5.788402 0.06484,0.06484 -0.390556,0.652986 -1.011981,1.307002 -1.639054,1.725 -4.279542,5.09892 -5.813313,7.42802 -5.566373,8.45278 -8.676362,17.41684 -9.450139,27.23859 -0.223827,2.84107 -0.151334,7.24213 0.151934,9.22409 l 0.118513,0.77451 H 45.23031 41.899323 Z"
       id="path1675"
       style="stroke-width:0.206537" />
    <path
       style="fill:#000000;fill-rule:nonzero;stroke:none;stroke-width:0.295161px;stroke-linecap:butt;stroke-linejoin:miter;stroke-opacity:1"
       d="m 102.12955,243.43706 c 11.25016,0.25675 24.56683,-1.47659 38.43732,-6.95933 11.22611,-4.43747 22.73421,-11.32079 32.79313,-21.22654 8.91218,-8.77646 16.48815,-19.7812 21.70901,-32.49444 4.8011,-11.69111 7.58082,-24.79462 7.36636,-38.37962 -0.20039,-12.69348 -3.01847,-25.56865 -8.36268,-37.66606 -5.14172,-11.639035 -12.6125,-22.520013 -22.18992,-31.562188 -9.35875,-8.835721 -20.56359,-15.761534 -32.75484,-20.35898 -12.05141,-4.54471 -25.03567,-6.800272 -38.03582,-6.366265 -12.390252,0.413645 -24.608176,3.254989 -35.876407,8.138838 -11.398526,4.940321 -21.792147,11.95442 -30.456005,20.63879 -8.866289,8.88728 -15.774918,19.379381 -20.550805,30.533285 -4.9633192,11.59165 -7.6117573,23.8555 -7.8889733,35.95198 -0.3037451,13.25411 2.24251,26.0642 6.7367143,37.5524 4.886358,12.49063 12.04215,23.37835 20.50917,32.16857 9.556488,9.92126 20.554633,16.99368 31.347742,21.71619 13.332682,5.8337 26.238928,8.06286 37.216004,8.31337 z m 0.25414,-11.13534 c -9.683046,-0.22099 -21.138632,-2.18998 -33.005305,-7.38223 -9.586507,-4.19457 -19.358016,-10.48465 -27.790551,-19.23906 -7.462518,-7.74737 -13.813214,-17.392 -18.158427,-28.49935 -3.997641,-10.21887 -6.241669,-21.56662 -5.974164,-33.23936 0.244149,-10.65357 2.580154,-21.5175 6.992747,-31.82295 4.246624,-9.91782 10.376889,-19.212323 18.196944,-27.050892 7.642059,-7.660153 16.853954,-13.88822 27.000144,-18.285756 10.030766,-4.34751 20.875353,-6.861101 31.818672,-7.226441 11.47682,-0.38315 23.00173,1.608787 33.734,5.656038 10.85615,4.093966 20.78718,10.245831 29.03865,18.036154 8.44365,7.97176 15.07399,17.610287 19.64791,27.964027 4.75329,10.75978 7.23779,22.16638 7.4142,33.34104 0.18884,11.96195 -2.26106,23.57059 -6.53279,33.97263 -4.64379,11.30804 -11.36798,21.05606 -19.22099,28.7895 -8.87398,8.73885 -19.10071,14.8627 -29.07233,18.80429 -12.34777,4.88084 -24.16763,6.40877 -34.08871,6.18236 z"
       id="path1759"
       inkscape:path-effect="#path-effect1761;#path-effect1763"
       inkscape:original-d="m 102.25662,237.86939 c 30.12282,31.35145 63.07392,-62.26928 94.61032,-93.40435 C 228.40341,113.32993 133.14131,84.148386 101.27793,53.989659 69.414652,23.830932 41.684656,113.87294 11.887581,143.81413 c -29.797083,29.94117 60.246343,62.7038 90.369039,94.05526 z" />
    <path
       style="fill:#000000;fill-rule:nonzero;stroke:none;stroke-width:0.264583px;stroke-linecap:butt;stroke-linejoin:miter;stroke-opacity:1"
       d="m 165.5117,148.38132 c 0,0 -4.99214,0 -4.99214,0 0,10.77936 1.04633,31.42865 2.18094,52.91066 -23.01869,-21.05994 -45.3437,-41.53138 -56.46492,-52.49759 11.85522,11.68999 34.68939,35.95862 57.52356,60.22726 l 3.93286,4.17993 0.31577,-5.95726 c 1.24803,-23.5452 2.49607,-47.0904 2.49607,-58.863 0,0 -4.99214,0 -4.99214,0 z"
       id="path1898"
       inkscape:path-effect="#path-effect1900"
       inkscape:original-d="m 165.5117,148.38132 v 58.863 l -59.27612,-58.44993" />
    <path
       style="fill:#000000;fill-rule:nonzero;stroke:none;stroke-width:0.264583px;stroke-linecap:butt;stroke-linejoin:miter;stroke-opacity:1"
       d="m 165.61496,144.97346 c 0,0 4.99214,0 4.99214,0 0,-12.12373 -1.24803,-36.3712 -2.49607,-60.618659 l -0.30959,-6.01495 -3.95147,4.249963 c -23.36494,25.129956 -46.72989,50.259916 -58.85361,62.383646 11.38829,-11.3883 34.25273,-32.69541 57.81331,-54.604194 -1.13688,22.164154 -2.18685,43.484024 -2.18685,54.604194 0,0 4.99214,0 4.99214,0 z"
       id="path1902"
       inkscape:path-effect="#path-effect1904"
       inkscape:original-d="M 165.61496,144.97346 V 84.354801 l -60.6186,60.618659" />
    <circle
       id="path1914"
       style="fill:#000000;stroke:none;stroke-width:0.264583"
       cx="40.96991"
       cy="147.96793"
       r="0.39687499" />
    <path
       style="fill:#000000;fill-rule:nonzero;stroke:none;stroke-width:0.264583px;stroke-linecap:butt;stroke-linejoin:miter;stroke-opacity:1"
       d="m 43.241814,148.17478 c 0,0 -4.99214,0 -4.99214,0 0,11.95848 1.248035,35.87545 2.49607,59.79242 l 0.313977,6.01697 3.947081,-4.25198 c 22.848596,-24.61358 45.697193,-49.22716 57.562738,-61.0927 -11.129995,11.12999 -33.476504,31.92355 -56.518329,53.31616 1.135302,-21.83368 2.182743,-42.82549 2.182743,-53.78087 0,0 -4.99214,0 -4.99214,0 z"
       id="path1916"
       inkscape:path-effect="#path-effect1918"
       inkscape:original-d="M 43.241814,148.17478 V 207.9672 L 102.56954,148.63949" />
    <path
       style="fill:#000000;fill-rule:nonzero;stroke:none;stroke-width:0.264583px;stroke-linecap:butt;stroke-linejoin:miter;stroke-opacity:1"
       d="m 44.501487,145.28776 c 0,0 4.99214,0 4.99214,0 0,-6.45338 -0.644297,-17.54355 -1.46996,-29.93895 -0.570708,-9.0485 -1.228068,-18.755587 -1.8192,-27.959324 24.892194,23.784004 46.938157,44.981974 59.708393,57.752224 -13.237307,-13.23732 -35.530092,-36.4413 -60.371954,-62.450847 0,0 -2.294454,-2.402693 -2.294454,-2.402693 0,0 -0.214925,3.442111 -0.214925,3.442111 -0.646956,10.257402 -1.405264,21.361129 -2.05222,31.618529 -0.825663,12.3954 -1.46996,23.48557 -1.46996,29.93895 0,0 4.99214,0 4.99214,0 z"
       id="path1920"
       inkscape:path-effect="#path-effect1922"
       inkscape:original-d="M 44.501487,145.28776 V 115.34881 83.730281 l 61.411373,61.411429" />
  </g>
</svg>
