<?xml version="1.0" encoding="utf-8"?>
<svg id="em4uO9hb2pv1" viewBox="86.2 82.558 400 450" shape-rendering="geometricPrecision" text-rendering="geometricPrecision" width="350px" height="400" xmlns="http://www.w3.org/2000/svg">
  <style>
#em4uO9hb2pv4_to {animation: em4uO9hb2pv4_to__to 1000ms linear infinite normal forwards}@keyframes em4uO9hb2pv4_to__to { 0% {transform: translate(263.949556px,388px)} 100% {transform: translate(263.949556px,395.410979px)}} #em4uO9hb2pv5_to {animation: em4uO9hb2pv5_to__to 1000ms linear infinite normal forwards}@keyframes em4uO9hb2pv5_to__to { 0% {transform: translate(263.949556px,437.451142px)} 100% {transform: translate(263.949556px,477.856037px)}} #em4uO9hb2pv6_to {animation: em4uO9hb2pv6_to__to 1000ms linear infinite normal forwards}@keyframes em4uO9hb2pv6_to__to { 0% {transform: translate(263.949556px,477.451141px)} 100% {transform: translate(263.949556px,507px)}} #em4uO9hb2pv7_to {animation: em4uO9hb2pv7_to__to 1000ms linear infinite normal forwards}@keyframes em4uO9hb2pv7_to__to { 0% {transform: translate(257.595104px,408px)} 100% {transform: translate(257.595104px,437.856038px)}} #em4uO9hb2pv8_to {animation: em4uO9hb2pv8_to__to 1000ms linear infinite normal forwards}@keyframes em4uO9hb2pv8_to__to { 0% {transform: translate(258px,395.410979px)} 100% {transform: translate(258px,408px)}}
</style>
  <defs>
    <linearGradient id="em4uO9hb2pv2-fill" x1="257.848986" y1="84.30193" x2="256.478025" y2="378.040783" spreadMethod="pad" gradientUnits="userSpaceOnUse" gradientTransform="matrix(1, 0, 0, 1, 28.351456, -1.743511)">
      <stop id="em4uO9hb2pv2-fill-0" offset="0" stop-color="#e72696"/>
      <stop id="em4uO9hb2pv2-fill-1" offset="1" stop-color="#facf31"/>
    </linearGradient>
  </defs>
  <path d="M 445.793 242.151 C 445.793 243.447 445.778 244.739 445.747 246.028 L 126.653 246.028 C 126.622 244.739 126.607 243.447 126.607 242.151 C 126.607 239.944 126.652 237.747 126.741 235.561 L 445.659 235.561 C 445.748 237.747 445.793 239.944 445.793 242.151 Z M 430.474 310.465 L 141.926 310.465 C 139.95 306.298 138.148 302.031 136.531 297.675 L 435.869 297.675 C 434.252 302.031 432.45 306.298 430.474 310.465 Z M 129.486 272.48 L 442.914 272.48 C 442.184 276.277 441.319 280.026 440.324 283.722 L 132.076 283.722 C 131.081 280.026 130.216 276.277 129.486 272.48 Z M 127.097 254.748 L 445.303 254.748 C 445.128 256.99 444.906 259.219 444.64 261.434 L 127.76 261.434 C 127.494 259.219 127.272 256.99 127.097 254.748 Z M 286.2 82.558 C 369.97 82.558 438.665 147.099 445.272 229.167 L 127.128 229.167 C 133.735 147.099 202.43 82.558 286.2 82.558 Z M 410.818 341.861 L 161.582 341.861 C 157.722 337.043 154.135 331.996 150.846 326.744 L 421.554 326.744 C 418.265 331.996 414.678 337.043 410.818 341.861 Z M 371.08 377.325 L 201.32 377.325 C 193.417 372.352 185.982 366.706 179.093 360.466 L 393.307 360.466 C 386.418 366.706 378.983 372.352 371.08 377.325 Z" fill="url(#em4uO9hb2pv2-fill)"/>
  <line x1="86.2" y1="414.95" x2="486.2" y2="414.039" fill="none" stroke="#5edba5" stroke-width="3" style=""/>
  <line x1="309.179" y1="473.781" x2="430.178" y2="473.506" fill="none" stroke="#5edba5" stroke-width="3" style="" transform="matrix(0.173648, 0.984808, -0.984808, 0.173648, 771.932387, 27.334005)">
    <title>vert line 7</title>
  </line>
  <line x1="151.183" y1="475.044" x2="269.858" y2="474.604" fill="none" stroke="#5edba5" stroke-width="3" style="" transform="matrix(-0.173648, 0.984808, -0.984808, -0.173648, 714.68734, 349.954016)">
    <title>vert line 3</title>
  </line>
  <line x1="270.444" y1="473.493" x2="388.993" y2="473.225" fill="none" stroke="#5edba5" stroke-width="3" style="" transform="matrix(0.087156, 0.996195, -0.996195, 0.087156, 772.539295, 103.639124)">
    <title>vert line 6</title>
  </line>
  <line x1="109.269" y1="473.663" x2="231.239" y2="473.385" fill="none" stroke="#5edba5" stroke-width="3" style="" transform="matrix(-0.258819, 0.965926, -0.965926, -0.258819, 671.708034, 431.628247)">
    <title>vert line 2</title>
  </line>
  <line x1="65.708" y1="473.725" x2="192.541" y2="473.436" fill="none" stroke="#5edba5" stroke-width="3" style="" transform="matrix(-0.34202, 0.939693, -0.939693, -0.34202, 618.307795, 514.217141)">
    <title>vert line 1</title>
  </line>
  <line x1="230.594" y1="473.242" x2="349.497" y2="472.971" fill="none" stroke="#5edba5" stroke-width="3" style="" transform="matrix(0, 1, -1, 0, 763.152008, 183.061005)">
    <title>vert line 5</title>
  </line>
  <line x1="344.963" y1="473.597" x2="468.706" y2="473.315" fill="none" stroke="#5edba5" stroke-width="3" style="" transform="matrix(0.258819, 0.965926, -0.965926, 0.258819, 758.861416, -42.055348)">
    <title>vert line 8</title>
  </line>
  <line x1="381.132" y1="473.023" x2="507.578" y2="473.402" fill="none" stroke="#5edba5" stroke-width="3" style="" transform="matrix(0.34202, 0.939693, -0.939693, 0.34202, 737.051091, -106.192735)">
    <title>vert line 9</title>
  </line>
  <line x1="191.046" y1="473.586" x2="309.687" y2="473.316" fill="none" stroke="#5edba5" stroke-width="3" style="" transform="matrix(-0.087156, 0.996195, -0.996195, -0.087156, 743.836818, 265.301309)">
    <title>vert line 4</title>
  </line>
  <path d="" fill="none" stroke="#3f5787" stroke-width="0.8"/>
  <line x1="86.2" y1="424.911" x2="486.2" y2="424" fill="none" stroke="#5edba5" stroke-width="3" style=""/>
  <line x1="86.2" y1="440.911" x2="486.2" y2="440" fill="none" stroke="#5edba5" stroke-width="3" style=""/>
  <line x1="86.2" y1="464.91" x2="486.2" y2="464" fill="none" stroke="#5edba5" stroke-width="3" style=""/>
  <line x1="86.2" y1="498.552" x2="486.2" y2="497.64" fill="none" stroke="#5edba5" stroke-width="3" style=""/>
  <line x1="422.842" y1="456.21" x2="516.415" y2="455.998" fill="none" stroke="#5edba5" stroke-width="3" style="" transform="matrix(0.422618, 0.906308, -0.906308, 0.422618, 684.525663, -162.281795)"/>
  <line x1="60.198" y1="450.808" x2="141.309" y2="450.623" fill="none" stroke="#5edba5" stroke-width="3" style="" transform="matrix(-0.422618, 0.906308, -0.906308, -0.422618, 551.820776, 549.882271)"/>
  <line x1="83.53" y1="533.614" x2="489.497" y2="532.688" fill="none" stroke="#5edba5" stroke-width="3" style=""/>
</svg>