<svg width="210mm" height="297mm" viewBox="0 0 210 297" xmlns="http://www.w3.org/2000/svg"><path d="M102 80h3v137h-3z"/><path d="M37 145v3h137v-3z"/><path d="M37 145h5a65 65 0 0 1 60-61 65 65 0 0 1 63 36 66 66 0 0 1-33 90 68 68 0 0 1-91-38 70 70 0 0 0 130 1 71 71 0 0 0-41-93 72 72 0 0 0-98 65h5z"/><path d="M105 145v1c-1 1-4 0-4-1-3-4 1-9 4-10 7-3 15 3 17 10 4 12-6 24-17 27-18 4-35-10-39-28-5-25 15-48 39-52 34-6 64 21 69 53" fill="none" stroke="#000" stroke-width=".26458"/><path d="M106 149v-1c1-2 4 0 5 1 2 4-1 8-5 10-7 3-15-3-17-10-4-13 6-25 18-27 18-5 35 10 38 27 5 26-15 49-39 53-34 6-64-21-69-54" fill="none" stroke="#000" stroke-width=".26458"/><path d="M102 148h1c2 2 0 4-1 5-4 2-8-1-10-5-3-7 3-15 10-17 12-4 24 6 27 18 4 18-10 35-27 38-25 5-48-15-53-39-6-33 21-63 53-68" fill="none" stroke="#000" stroke-width=".26458"/><path d="M105 145h-1c-2-2 0-4 1-5 4-2 9 1 10 5 3 7-3 15-10 18-13 4-25-6-28-18-5-19 10-37 28-41 26-6 51 15 55 41 7 35-21 66-55 72" fill="none" stroke="#000" stroke-width=".26458"/><circle cx="18.9" cy="108.5" r=".1" stroke="#000" stroke-width=".3"/><circle cx="18.9" cy="108.5" r=".1" stroke="#000" stroke-width=".3"/><path d="M127 143c-3-6-9-11-16-12l-4-1h-2v-8h1l12-1c7 2 12 5 17 10a34 34 0 0 1 9 14h-16zM105 194v-7l1-1c6-2 11-5 15-9a31 31 0 0 0 8-28v-1h16v16c-3 18-18 33-38 37l-2 1zM91 202a63 63 0 0 1-54-52v-1l6-1h6v2c4 15 14 27 26 34 6 3 11 4 18 4l9-1v15H91zM66 143c-1-6 0-13 2-19a49 49 0 0 1 34-31v12h-2l-8 4c-9 6-15 15-16 25a41 41 0 0 0 1 11H67zM95 172a32 32 0 0 1-21-12c-3-3-5-8-6-11v-1h10l1 2c1 2 2 5 5 7 3 3 6 5 10 6l5 1h3v8h-7zM105 167v-4l2-1c4-2 8-6 9-10v-4h7v3c-1 8-5 14-13 18l-5 2v-4z"/><path d="m115 144-4-4-5-1-1 1v-5h7c3 0 5 2 7 5l3 5h-6zM100 159c-4-1-8-4-10-8v-3h2v1l4 4h6v3c0 4 0 3-2 3zM105 153v-5l1 1 2-1 2 1 1 3-2 5-4 2v-6zM101 144c-1-1-1-4 1-6v-1 8l-1-1zM88 144l1-6 3-6 8-8c2-1 2-1 2 3v4h-1c-5 2-10 8-10 13v1h-3zM160 144a55 55 0 0 0-18-31c-7-5-15-9-23-10l-13 1h-1V92h17a60 60 0 0 1 44 32c3 6 5 13 5 19v2h-11zM117 214c22-8 39-26 43-48 1-5 2-12 1-16v-2h10v2a70 70 0 0 1-15 42l-10 9c-8 7-18 11-29 13-2 1-3 1 0 0zM42 144v-4a66 66 0 0 1 23-41l-1 1-6 8a57 57 0 0 0-10 36l1 1h-7Z"/><path d="M102 243a99 99 0 0 0 100-99 97 97 0 0 0-63-89A99 99 0 0 0 35 77a98 98 0 0 0 30 158c13 6 26 8 37 8zm0-11a88 88 0 0 1-85-88 86 86 0 0 1 53-77 88 88 0 0 1 94 16 87 87 0 0 1 2 124 87 87 0 0 1-64 25z"/><path d="M166 148h-5l2 53-57-52 58 60 4 4v-6l3-59h-5zM166 145h5l-3-61v-6l-4 5-59 62 58-55-2 55h5z"/><circle cx="41" cy="148" r=".4"/><path d="M43 148h-5l3 60v6l4-4 58-61-57 53 2-54h-5zM45 145h4l-1-30-2-28 60 58-60-62-3-3v4l-2 31-1 30h5z"/></svg>