<?xml version="1.0" encoding="UTF-8"?>
<svg width="210mm" height="297mm" version="1.1" viewBox="0 0 210 297" xmlns="http://www.w3.org/2000/svg">
<rect x="102.1" y="79.604" width="3" height="137.14" stroke-width=".17826"/>
<rect transform="matrix(0,1,1,0,0,0)" x="145.1" y="36.723" width="3" height="137.14" stroke-width=".17826"/>
<path d="m36.723 145.1 4.9871 0.2239c0.30012-6.6849 1.7306-14.58 5.2775-22.817 2.8675-6.6596 7.1149-13.497 13.017-19.548 5.2243-5.3567 11.731-10.068 19.308-13.542 6.9718-3.1969 14.784-5.3084 22.979-5.8116 8.2426-0.499 16.809 0.64902 25.065 3.4959 7.9421 2.7388 15.518 7.0282 22.012 12.78 6.3468 5.6217 11.614 12.604 15.422 20.433 3.7633 7.7375 6.0661 16.234 6.5803 24.897 0.52517 8.9109-0.85173 17.919-3.8878 26.342-3.0703 8.5177-7.8096 16.362-13.904 22.894-6.2385 6.6857-13.828 11.928-22.008 15.531-8.4985 3.7443-17.556 5.6912-26.462 5.7793-9.3669 0.0931-18.472-1.8674-26.616-5.2539-8.8536-3.6817-16.507-9.002-22.592-15.251-6.8742-7.0598-11.653-15.181-14.685-23.089-3.7383-9.749-4.8358-19.176-4.4914-27.063-0.34416 7.8805 0.65162 17.269 4.2815 27.142 2.9296 7.968 7.5898 16.226 14.39 23.492 6.0219 6.435 13.659 12.004 22.585 15.961 8.2076 3.6388 17.462 5.884 27.122 6.0328 9.177 0.14093 18.593-1.6199 27.52-5.2724 8.5873-3.5135 16.681-8.7694 23.44-15.625 6.6102-6.7047 11.853-14.849 15.363-23.793 3.4686-8.8391 5.228-18.424 4.9322-28.049-0.28403-9.3594-2.5015-18.614-6.3408-27.122-3.8829-8.6048-9.4086-16.414-16.239-22.818-6.9857-6.5498-15.228-11.532-23.944-14.808-9.0571-3.4042-18.593-4.9624-27.915-4.6415-9.2644 0.31173-18.145 2.4576-26.119 5.872-8.6657 3.7104-16.218 8.8906-22.366 14.926-6.9426 6.816-11.969 14.579-15.378 22.176-4.2032 9.3684-5.9692 18.513-6.3189 26.302l4.9871 0.2239z"/>
<path transform="matrix(.26458 0 0 .26458 11.642 16.404)" d="m352.84 484.76c1.8055 0.0115 0.37587 3.562-0.0259 4.067-4.6043 5.7862-13.304 0.50913-16.242-4.1706-8.8518-14.102 3.276-30.985 16.501-36.499 27.929-11.644 56.686 10.83 64.838 37.017 14.355 46.111-22.141 90.457-65.719 101.26-68.684 17.025-132.32-37.205-145.76-102.61-19.665-95.665 56.022-182.28 147.68-198.35 127.06-22.277 240.34 78.592 259.02 200.94" fill="none" stroke="#000"/>
<path transform="matrix(.26458 0 0 .26458 11.642 16.404)" d="m357.52 500.37c-1.8224-0.0181-0.36651-3.5969 0.0409-4.1051 4.6685-5.8238 13.431-0.46577 16.379 4.2685 8.884 14.266-3.4188 31.264-16.788 36.782-28.234 11.652-57.179-11.136-65.313-37.599-14.323-46.596 22.676-91.227 66.703-101.97 69.39-16.936 133.43 38.033 146.76 104.1 19.503 96.634-57.208 183.79-149.78 199.68-128.34 22.026-242.32-80.2-260.72-203.76" fill="none" stroke="#000"/>
<path transform="matrix(.26458 0 0 .26458 11.642 16.404)" d="m341.12 498.99c5e-3 -1.8043 3.5584-0.38754 4.0644 0.0123 5.7977 4.5819 0.55327 13.294-4.1135 16.245-14.063 8.8931-30.976-3.1702-36.53-16.368-11.73-27.872 10.633-56.685 36.776-64.919 46.033-14.499 90.472 21.824 101.41 65.337 17.243 68.581-36.738 132.36-102.05 146.01-95.536 19.971-182.35-55.376-198.71-146.92-22.687-126.91 77.737-240.45 199.94-259.52" fill="none" stroke="#000"/>
<path transform="matrix(.26458 0 0 .26458 11.642 16.404)" d="m352.84 484.76c3e-3 1.8897-3.725 0.42275-4.2568 6e-3 -6.0938-4.7713-0.64252-13.92 4.2312-17.033 14.686-9.3807 32.457 3.1733 38.337 16.969 12.417 29.135-10.867 59.418-38.208 68.166-48.142 15.404-94.857-22.427-106.52-67.948-18.385-71.745 37.849-138.79 106.19-153.4 99.962-21.37 191.24 57.132 208.81 152.93 24.362 132.8-80.275 252.19-208.17 272.75" fill="none" stroke="#000"/>
<circle cx="18.87" cy="108.52" r=".081887" stroke="#000" stroke-width=".26458"/>
<circle cx="18.87" cy="108.52" r=".081887" stroke="#000" stroke-width=".26458"/>
<path d="m126.99 143.28c-3.2705-6.486-9.0726-11.209-15.586-12.686-1.0483-0.23781-2.5016-0.37755-3.9759-0.38226l-2.3236-7e-3v-7.9401l1.0843-0.30595c3.2822-0.92611 8.8086-1.1365 12.19-0.46404 6.3014 1.2532 11.702 4.2224 16.572 9.1114 3.0558 3.0677 4.9076 5.5604 6.7048 9.025 1.0376 2.0004 2.2783 4.8552 2.2783 5.2425 0 0.0542-3.6204 0.0985-8.0452 0.0985h-8.0452z" stroke-width=".20654"/>
<path d="m105.1 194.23v-7.706l0.98105-0.35654c5.9009-2.1444 10.51-5.1332 14.766-9.5743 5.5302-5.7712 8.5582-12.58 8.952-20.129 0.10948-2.0988-0.0849-4.2908-0.66636-7.5128l-0.12112-0.67125h15.916l0.20854 0.98105c0.88261 4.1521 0.98738 10.157 0.25133 14.406-3.1837 18.378-18.549 33.668-37.964 37.777l-2.3236 0.49176z" stroke-width=".20654"/>
<path d="m91.365 202.37c-21.746-2.0588-41.696-17.798-50.492-39.836-1.5069-3.7756-3.1731-9.5785-3.6174-12.599-0.07521-0.51118-0.18313-1.0935-0.23984-1.294-0.09709-0.34334 0.24856-0.36139 5.931-0.30981l6.0341 0.0548 0.46694 2.0654c3.2302 14.288 13.112 27.046 25.813 33.323 5.9324 2.9324 10.722 4.1295 17.24 4.309 3.5596 0.098 7.108-0.17264 9.036-0.68919l0.46472-0.1245v15.064l-1.7039 0.13265c-2.22 0.17281-6.5851 0.12556-8.9327-0.0967z" stroke-width=".20654"/>
<path d="m66.173 142.75c-0.99716-6.221-0.47502-12.917 1.4639-18.772 4.7531-14.355 17.044-25.954 32.387-30.563 0.90038-0.27047 1.7136-0.49177 1.8072-0.49177 0.0936 0 0.17014 2.6372 0.17014 5.8604v5.8604l-1.8938 0.66131c-2.3698 0.82754-5.9609 2.6183-8.1232 4.0507-8.9192 5.9086-14.763 14.74-16.028 24.223-0.29576 2.216-0.11463 7.6637 0.31697 9.533 0.17049 0.73837 0.31324 1.4587 0.31723 1.6007 0.0056 0.19968-1.1334 0.25817-5.027 0.25817h-5.0342z" stroke-width=".20654"/>
<path d="m94.876 172.01c-3.1939-0.38298-6.9512-1.5335-9.9477-3.0462-3.753-1.8945-8.5886-5.9197-11.332-9.4325-2.3422-2.9996-4.6223-7.0641-5.6684-10.105l-0.39617-1.1515h10.242l0.74375 1.4974c1.2911 2.5994 2.8423 4.7319 5.0913 6.9994 3.204 3.2303 6.2088 5.0717 10.279 6.2991 1.5978 0.48183 2.1899 0.54973 4.9632 0.56911l3.149 0.022 5.3e-4 4.0669c5.3e-4 2.2368-0.0799 4.1167-0.17847 4.1776-0.35926 0.22204-5.3387 0.29609-6.9464 0.10331z" stroke-width=".20654"/>
<path d="m105.1 167.08v-4.1208l1.8068-0.8467c4.5027-2.11 7.8351-5.9295 8.9389-10.246 0.22401-0.87586 0.40729-2.0423 0.40729-2.5921v-0.99965h6.3948l0.13591 0.54154c0.0748 0.29784 0.0754 1.4028 1e-3 2.4554-0.50991 7.254-5.1587 13.975-12.347 17.851-1.445 0.77918-4.6558 2.0773-5.1379 2.0773-0.12306 0-0.2006-1.5927-0.2006-4.1208z" stroke-width=".20654"/>
<path d="m114.94 143.84c-0.71206-1.3628-2.7702-3.3481-4.175-4.0274-1.3312-0.64368-3.659-0.80428-4.8354-0.33362l-0.82648 0.33069v-4.6926l1.2011-0.33703c1.513-0.42453 4.1263-0.43309 5.7171-0.0187 2.6024 0.67785 5.4666 2.6979 7.4121 5.2277 0.85072 1.1062 2.1764 3.5148 2.4893 4.5227l0.14427 0.46471-6.5337-0.00106z" stroke-width=".20654"/>
<path d="m99.73 158.9c-3.8923-0.83899-7.7059-4.0052-9.6869-8.0425-1.3248-2.7-1.3444-2.5826 0.43045-2.5764l1.5113 5e-3 0.39963 0.87245c0.53417 1.1662 2.6578 3.2561 3.9376 3.8752 1.3345 0.64551 3.5919 0.79923 4.7333 0.32233 0.43472-0.18164 0.82552-0.33025 0.86844-0.33025 0.0429 0 0.0781 1.3941 0.0781 3.098 0 3.5644 0.20794 3.3104-2.2719 2.7758z" stroke-width=".20654"/>
<path d="m105.1 153.44c0-4.2758 0.0495-5.1634 0.28771-5.1634 0.15824 0 0.3412 0.13941 0.40659 0.30981 0.0654 0.17039 0.22469 0.3098 0.354 0.3098s0.18162-0.13941 0.11623-0.3098c-0.10018-0.26108 0.17013-0.30981 1.7185-0.30981 1.7258 0 1.8626 0.0321 2.2537 0.52925 0.65745 0.83581 0.91404 1.8921 0.80118 3.2981-0.13393 1.6684-0.90549 3.0959-2.4425 4.5189-1.0477 0.96996-2.7248 1.9806-3.2866 1.9806-0.13513 0-0.20879-1.8217-0.20879-5.1634z" stroke-width=".20654"/>
<path d="m100.76 144.3c-1.0546-1.7289-0.70644-4.4073 0.82551-6.351l0.40697-0.51634 5e-3 3.7693c4e-3 3.6423-9e-3 3.7693-0.41152 3.7693-0.24778 0-0.58175-0.27154-0.82555-0.67124z" stroke-width=".20654"/>
<path d="m88.268 144.1c-0.15404-1.058 0.15835-3.9491 0.62217-5.7581 0.45044-1.7568 1.9328-4.8591 3.1307-6.5518 1.9587-2.7678 5.0262-5.5561 8.0189-7.289 2.1526-1.2464 1.9621-1.5111 1.9621 2.7261v3.7163l-0.56798 0.21496c-5.7477 2.1754-10.172 7.6184-10.172 12.514v1.305h-2.8662z" stroke-width=".20654"/>
<path d="m160.25 143.79c-1.5156-7.6528-5.4626-16.1-10.479-22.427-1.7802-2.2454-5.695-6.1798-8.0069-8.0471-6.7528-5.454-14.625-8.9151-22.695-9.9781-3.7973-0.50016-10.136-0.29111-13.5 0.44523l-0.46471 0.10172v-11.727l2.7366-0.37746c3.939-0.54331 10.407-0.50378 14.303 0.08741 12.269 1.862 22.884 7.2005 32.282 16.234 4.9852 4.7925 10.202 11.803 12.037 16.178 2.3502 5.6007 4.2273 13.205 4.6536 18.851l0.13939 1.8464h-10.77z" stroke-width=".20654"/>
<path d="m116.5 214.07c22.114-7.6446 39.082-26.215 43.609-47.725 1.0403-4.9427 1.457-11.913 0.99038-16.567l-0.15013-1.4974h10.446v1.641c0 4.2995-0.90775 10.86-2.1589 15.603-2.5966 9.8434-6.9935 18.465-13.326 26.129-2.1145 2.5592-6.7865 7.1312-9.4379 9.2358-8.3878 6.6579-18.374 11.29-29.058 13.479-2.9159 0.59739-3.2198 0.49833-0.91536-0.29832z" stroke-width=".20654"/>
<path d="m41.899 143.96c0-0.55755 0.14526-2.1608 0.3228-3.5628 1.6865-13.318 7.232-25.507 16.199-35.607 2.0812-2.3441 5.9475-5.986 6.1451-5.7884 0.06484 0.06484-0.39056 0.65299-1.012 1.307-1.6391 1.725-4.2795 5.0989-5.8133 7.428-5.5664 8.4528-8.6764 17.417-9.4501 27.239-0.22383 2.8411-0.15133 7.2421 0.15193 9.2241l0.11851 0.77451h-6.662z" stroke-width=".20654"/>
<path d="m102.13 243.44c11.25 0.25675 24.567-1.4766 38.437-6.9593 11.226-4.4375 22.734-11.321 32.793-21.227 8.9122-8.7765 16.488-19.781 21.709-32.494 4.8011-11.691 7.5808-24.795 7.3664-38.38-0.20039-12.693-3.0185-25.569-8.3627-37.666-5.1417-11.639-12.612-22.52-22.19-31.562-9.3588-8.8357-20.564-15.762-32.755-20.359-12.051-4.5447-25.036-6.8003-38.036-6.3663-12.39 0.41364-24.608 3.255-35.876 8.1388-11.399 4.9403-21.792 11.954-30.456 20.639-8.8663 8.8873-15.775 19.379-20.551 30.533-4.9633 11.592-7.6118 23.856-7.889 35.952-0.30375 13.254 2.2425 26.064 6.7367 37.552 4.8864 12.491 12.042 23.378 20.509 32.169 9.5565 9.9213 20.555 16.994 31.348 21.716 13.333 5.8337 26.239 8.0629 37.216 8.3134zm0.25414-11.135c-9.683-0.22099-21.139-2.19-33.005-7.3822-9.5865-4.1946-19.358-10.485-27.791-19.239-7.4625-7.7474-13.813-17.392-18.158-28.499-3.9976-10.219-6.2417-21.567-5.9742-33.239 0.24415-10.654 2.5802-21.518 6.9927-31.823 4.2466-9.9178 10.377-19.212 18.197-27.051 7.6421-7.6602 16.854-13.888 27-18.286 10.031-4.3475 20.875-6.8611 31.819-7.2264 11.477-0.38315 23.002 1.6088 33.734 5.656 10.856 4.094 20.787 10.246 29.039 18.036 8.4436 7.9718 15.074 17.61 19.648 27.964 4.7533 10.76 7.2378 22.166 7.4142 33.341 0.18884 11.962-2.2611 23.571-6.5328 33.973-4.6438 11.308-11.368 21.056-19.221 28.79-8.874 8.7388-19.101 14.863-29.072 18.804-12.348 4.8808-24.168 6.4088-34.089 6.1824z"/>
<path d="m165.51 148.38h-4.9921c0 10.779 1.0463 31.429 2.1809 52.911-23.019-21.06-45.344-41.531-56.465-52.498 11.855 11.69 34.689 35.959 57.524 60.227l3.9329 4.1799 0.31577-5.9573c1.248-23.545 2.4961-47.09 2.4961-58.863h-4.9921z"/>
<path d="m165.61 144.97h4.9921c0-12.124-1.248-36.371-2.4961-60.619l-0.30959-6.015-3.9515 4.25c-23.365 25.13-46.73 50.26-58.854 62.384 11.388-11.388 34.253-32.695 57.813-54.604-1.1369 22.164-2.1868 43.484-2.1868 54.604h4.9921z"/>
<circle cx="40.97" cy="147.97" r=".39687"/>
<path d="m43.242 148.17h-4.9921c0 11.958 1.248 35.875 2.4961 59.792l0.31398 6.017 3.9471-4.252c22.849-24.614 45.697-49.227 57.563-61.093-11.13 11.13-33.477 31.924-56.518 53.316 1.1353-21.834 2.1827-42.825 2.1827-53.781h-4.9921z"/>
<path d="m44.501 145.29h4.9921c0-6.4534-0.6443-17.544-1.47-29.939-0.57071-9.0485-1.2281-18.756-1.8192-27.959 24.892 23.784 46.938 44.982 59.708 57.752-13.237-13.237-35.53-36.441-60.372-62.451l-2.2945-2.4027s-0.21492 3.4421-0.21492 3.4421c-0.64696 10.257-1.4053 21.361-2.0522 31.619-0.82566 12.395-1.47 23.486-1.47 29.939h4.9921z"/>
</svg>
